<?xml version="1.0" encoding="UTF-8"?>
<svg xmlns="http://www.w3.org/2000/svg" xmlns:xlink="http://www.w3.org/1999/xlink" width="60px" height="31px" viewBox="0 0 59 31" version="1.1">
<g id="surface1">
<path style=" stroke:none;fill-rule:nonzero;fill:rgb(0%,0%,0%);fill-opacity:1;" d="M 22.5 0.0234375 C 22.265625 0.0585938 22.121094 0.117188 21.824219 0.296875 C 21.453125 0.527344 21.335938 0.640625 21.222656 0.882812 C 21.140625 1.058594 21.117188 1.195312 21.125 1.433594 C 21.132812 1.621094 21.140625 1.65625 21.195312 1.769531 C 21.273438 1.929688 21.421875 2.078125 21.585938 2.164062 C 21.800781 2.273438 21.976562 2.304688 22.492188 2.324219 C 23.324219 2.355469 23.703125 2.457031 24.046875 2.742188 C 24.40625 3.035156 24.558594 3.453125 24.539062 4.078125 C 24.53125 4.332031 24.535156 4.371094 24.5625 4.382812 C 24.582031 4.390625 24.609375 4.375 24.636719 4.339844 L 24.679688 4.28125 L 24.679688 4.335938 C 24.679688 4.367188 24.695312 4.394531 24.710938 4.398438 C 24.730469 4.40625 24.746094 4.410156 24.75 4.40625 C 24.753906 4.402344 24.792969 4.339844 24.84375 4.261719 C 25.027344 3.964844 25.15625 3.652344 25.234375 3.292969 C 25.292969 3.007812 25.292969 2.5 25.234375 2.214844 C 25.113281 1.648438 24.863281 1.152344 24.511719 0.773438 C 24.289062 0.539062 24.085938 0.382812 23.816406 0.25 C 23.386719 0.0351562 22.9375 -0.0429688 22.5 0.0234375 Z M 22.5 0.0234375 "/>
<path style=" stroke:none;fill-rule:nonzero;fill:rgb(0%,0%,0%);fill-opacity:1;" d="M 20.667969 1.167969 C 20.273438 1.828125 20.089844 2.671875 20.191406 3.300781 C 20.347656 4.261719 20.988281 5.0625 21.828125 5.363281 C 22.109375 5.460938 22.304688 5.492188 22.628906 5.480469 C 22.96875 5.464844 23.136719 5.425781 23.425781 5.285156 C 23.742188 5.128906 24.007812 4.847656 24.128906 4.546875 C 24.195312 4.378906 24.273438 4.003906 24.273438 3.84375 C 24.277344 3.421875 24.089844 3.089844 23.742188 2.910156 C 23.480469 2.777344 23.175781 2.71875 22.582031 2.683594 C 22.035156 2.652344 21.738281 2.578125 21.484375 2.421875 C 21.339844 2.335938 21.144531 2.125 21.054688 1.964844 C 20.964844 1.796875 20.855469 1.460938 20.816406 1.214844 C 20.796875 1.105469 20.777344 1.011719 20.769531 1.011719 C 20.765625 1.011719 20.71875 1.082031 20.667969 1.167969 Z M 20.667969 1.167969 "/>
<path style=" stroke:none;fill-rule:nonzero;fill:rgb(0%,0%,0%);fill-opacity:1;" d="M 34.566406 2.105469 C 31.9375 2.292969 29.589844 3.351562 27.292969 5.386719 C 26.929688 5.707031 26.066406 6.585938 25.726562 6.984375 C 24.671875 8.21875 23.742188 9.589844 22.761719 11.367188 C 22.644531 11.578125 22.542969 11.757812 22.539062 11.761719 C 22.539062 11.765625 22.480469 11.660156 22.414062 11.53125 C 21.652344 10.078125 20.429688 8.734375 18.96875 7.765625 C 17.136719 6.542969 14.886719 5.863281 12.667969 5.863281 L 12.300781 5.863281 L 12.339844 5.917969 C 12.390625 5.992188 12.390625 6 12.339844 6 C 12.304688 6 12.3125 6.015625 12.390625 6.132812 C 12.441406 6.210938 12.492188 6.28125 12.503906 6.292969 C 12.519531 6.308594 12.664062 6.324219 12.898438 6.339844 C 13.871094 6.394531 14.726562 6.605469 15.605469 7 C 17.378906 7.792969 18.921875 9.34375 19.839844 11.257812 C 20.464844 12.554688 20.824219 14.023438 20.863281 15.425781 C 20.871094 15.761719 20.878906 15.863281 20.902344 15.882812 C 20.933594 15.910156 20.988281 15.910156 22.199219 15.9375 C 22.730469 15.945312 23.246094 15.960938 23.339844 15.964844 L 23.515625 15.96875 L 23.507812 15.617188 L 23.503906 15.269531 L 23.65625 14.871094 C 24.109375 13.683594 24.761719 12.261719 25.308594 11.265625 C 26.207031 9.621094 27.152344 8.3125 28.28125 7.144531 C 29.699219 5.675781 31.027344 4.773438 32.71875 4.136719 C 33.953125 3.671875 34.941406 3.515625 36.25 3.574219 C 37.066406 3.613281 37.191406 3.628906 37.511719 3.730469 C 38.664062 4.09375 39.792969 4.648438 40.378906 5.140625 C 40.726562 5.433594 41.558594 6.285156 41.871094 6.667969 C 42.324219 7.21875 42.660156 7.691406 42.800781 7.96875 C 43.007812 8.378906 43.332031 9.199219 43.371094 9.402344 C 43.378906 9.4375 43.390625 9.484375 43.402344 9.503906 C 43.417969 9.539062 43.441406 9.613281 43.5625 10.085938 C 43.621094 10.300781 43.640625 10.476562 43.679688 11.066406 C 43.71875 11.621094 43.71875 11.976562 43.679688 12.332031 C 43.570312 13.375 43.273438 14.363281 42.722656 15.484375 L 42.539062 15.859375 L 42.652344 15.859375 C 42.800781 15.859375 42.929688 15.8125 43.015625 15.726562 C 43.089844 15.652344 43.214844 15.445312 43.289062 15.273438 C 43.316406 15.214844 43.433594 14.96875 43.554688 14.722656 C 43.796875 14.226562 43.980469 13.726562 44.117188 13.15625 C 44.191406 12.851562 44.285156 12.367188 44.304688 12.171875 C 44.351562 11.71875 44.359375 11.488281 44.351562 11 C 44.335938 10.34375 44.285156 9.9375 44.144531 9.359375 C 44.117188 9.246094 44.09375 9.132812 44.089844 9.109375 C 44.0625 8.890625 43.933594 8.367188 43.875 8.234375 C 43.835938 8.148438 43.757812 7.953125 43.699219 7.800781 C 43.558594 7.433594 43.535156 7.386719 43.375 7.09375 C 43.164062 6.714844 42.785156 6.144531 42.503906 5.792969 C 42.21875 5.429688 41.65625 4.839844 41.316406 4.542969 C 40.855469 4.140625 40.402344 3.816406 39.847656 3.488281 C 38.710938 2.8125 37.636719 2.390625 36.640625 2.226562 C 35.996094 2.121094 35.097656 2.070312 34.566406 2.105469 Z M 34.566406 2.105469 "/>
<path style=" stroke:none;fill-rule:nonzero;fill:rgb(0%,0%,0%);fill-opacity:1;" d="M 36.210938 5.335938 C 35.980469 5.433594 35.816406 5.597656 35.730469 5.816406 C 35.691406 5.910156 35.683594 5.96875 35.683594 6.148438 C 35.683594 6.359375 35.683594 6.375 35.753906 6.519531 C 35.8125 6.644531 35.851562 6.695312 35.992188 6.828125 C 36.085938 6.914062 36.210938 7.011719 36.273438 7.046875 C 36.582031 7.226562 36.976562 7.164062 37.234375 6.902344 C 37.496094 6.632812 37.558594 6.226562 37.390625 5.882812 C 37.308594 5.71875 37.027344 5.441406 36.847656 5.359375 C 36.734375 5.304688 36.695312 5.296875 36.523438 5.289062 C 36.351562 5.285156 36.3125 5.289062 36.210938 5.335938 Z M 36.210938 5.335938 "/>
<path style=" stroke:none;fill-rule:nonzero;fill:rgb(0%,0%,0%);fill-opacity:1;" d="M 33.074219 6.339844 C 32.753906 6.40625 32.523438 6.667969 32.523438 6.972656 C 32.523438 7.195312 32.609375 7.34375 32.839844 7.527344 C 33.015625 7.660156 33.144531 7.707031 33.335938 7.710938 C 33.421875 7.710938 33.523438 7.699219 33.558594 7.691406 C 33.675781 7.65625 33.839844 7.546875 33.914062 7.445312 C 34.003906 7.328125 34.035156 7.222656 34.035156 7.0625 C 34.03125 6.875 33.976562 6.761719 33.796875 6.59375 C 33.632812 6.441406 33.503906 6.367188 33.347656 6.339844 C 33.226562 6.316406 33.195312 6.316406 33.074219 6.339844 Z M 33.074219 6.339844 "/>
<path style=" stroke:none;fill-rule:nonzero;fill:rgb(0%,0%,0%);fill-opacity:1;" d="M 37.90625 7.449219 C 37.761719 7.503906 37.6875 7.554688 37.574219 7.675781 C 37.457031 7.804688 37.402344 7.90625 37.363281 8.082031 C 37.308594 8.308594 37.351562 8.550781 37.476562 8.75 C 37.550781 8.867188 37.835938 9.128906 37.964844 9.191406 C 38.015625 9.21875 38.117188 9.25 38.195312 9.265625 C 38.808594 9.371094 39.304688 8.765625 39.113281 8.144531 C 39.066406 7.980469 38.976562 7.855469 38.789062 7.683594 C 38.574219 7.488281 38.4375 7.425781 38.195312 7.417969 C 38.046875 7.414062 37.988281 7.421875 37.90625 7.449219 Z M 37.90625 7.449219 "/>
<path style=" stroke:none;fill-rule:nonzero;fill:rgb(0%,0%,0%);fill-opacity:1;" d="M 34.773438 8.128906 C 34.46875 8.179688 34.25 8.417969 34.230469 8.726562 C 34.210938 8.984375 34.296875 9.167969 34.519531 9.351562 C 34.714844 9.511719 34.804688 9.546875 35.007812 9.546875 C 35.148438 9.546875 35.191406 9.539062 35.28125 9.492188 C 35.414062 9.429688 35.542969 9.296875 35.601562 9.164062 C 35.632812 9.089844 35.644531 9.035156 35.644531 8.894531 C 35.644531 8.65625 35.589844 8.539062 35.402344 8.363281 C 35.195312 8.171875 34.988281 8.089844 34.773438 8.128906 Z M 34.773438 8.128906 "/>
<path style=" stroke:none;fill-rule:nonzero;fill:rgb(0%,0%,0%);fill-opacity:1;" d="M 31.195312 8.347656 C 30.980469 8.445312 30.882812 8.648438 30.945312 8.867188 C 30.972656 8.957031 31 8.996094 31.085938 9.078125 C 31.230469 9.210938 31.335938 9.261719 31.476562 9.261719 C 31.644531 9.261719 31.738281 9.222656 31.839844 9.121094 C 31.957031 9.003906 31.992188 8.875 31.953125 8.71875 C 31.933594 8.632812 31.910156 8.59375 31.816406 8.5 C 31.753906 8.4375 31.667969 8.367188 31.621094 8.347656 C 31.503906 8.292969 31.3125 8.292969 31.195312 8.347656 Z M 31.195312 8.347656 "/>
<path style=" stroke:none;fill-rule:nonzero;fill:rgb(0%,0%,0%);fill-opacity:1;" d="M 39.753906 9.382812 C 39.332031 9.484375 39.039062 9.933594 39.113281 10.363281 C 39.140625 10.519531 39.203125 10.671875 39.285156 10.773438 C 39.378906 10.890625 39.640625 11.109375 39.757812 11.164062 C 39.855469 11.210938 39.890625 11.21875 40.09375 11.21875 C 40.308594 11.21875 40.324219 11.214844 40.445312 11.152344 C 40.609375 11.074219 40.757812 10.914062 40.839844 10.738281 C 40.898438 10.609375 40.902344 10.589844 40.902344 10.371094 C 40.902344 10.148438 40.902344 10.136719 40.832031 9.992188 C 40.773438 9.875 40.722656 9.808594 40.59375 9.679688 C 40.316406 9.410156 40.042969 9.3125 39.753906 9.382812 Z M 39.753906 9.382812 "/>
<path style=" stroke:none;fill-rule:nonzero;fill:rgb(0%,0%,0%);fill-opacity:1;" d="M 29.726562 9.511719 C 29.585938 9.585938 29.53125 9.667969 29.53125 9.8125 C 29.53125 9.960938 29.589844 10.074219 29.707031 10.164062 C 29.871094 10.289062 30.039062 10.277344 30.164062 10.132812 C 30.304688 9.976562 30.277344 9.796875 30.082031 9.582031 C 29.945312 9.4375 29.894531 9.425781 29.726562 9.511719 Z M 29.726562 9.511719 "/>
<path style=" stroke:none;fill-rule:nonzero;fill:rgb(0%,0%,0%);fill-opacity:1;" d="M 36.191406 9.824219 C 36.042969 9.886719 35.90625 10.023438 35.839844 10.179688 C 35.789062 10.289062 35.785156 10.316406 35.792969 10.46875 C 35.800781 10.605469 35.8125 10.664062 35.855469 10.742188 C 35.914062 10.859375 36.117188 11.058594 36.265625 11.140625 C 36.355469 11.191406 36.382812 11.199219 36.5625 11.199219 C 36.726562 11.199219 36.769531 11.191406 36.839844 11.152344 C 36.972656 11.082031 37.09375 10.957031 37.152344 10.832031 C 37.226562 10.679688 37.230469 10.4375 37.160156 10.28125 C 37.105469 10.152344 36.859375 9.90625 36.71875 9.839844 C 36.566406 9.765625 36.34375 9.757812 36.191406 9.824219 Z M 36.191406 9.824219 "/>
<path style=" stroke:none;fill-rule:nonzero;fill:rgb(0%,0%,0%);fill-opacity:1;" d="M 32.855469 9.972656 C 32.652344 10.039062 32.523438 10.203125 32.523438 10.40625 C 32.527344 10.539062 32.578125 10.648438 32.691406 10.75 C 32.855469 10.898438 33.015625 10.949219 33.195312 10.910156 C 33.480469 10.851562 33.636719 10.558594 33.523438 10.304688 C 33.476562 10.199219 33.285156 10.023438 33.171875 9.984375 C 33.078125 9.953125 32.9375 9.949219 32.855469 9.972656 Z M 32.855469 9.972656 "/>
<path style=" stroke:none;fill-rule:nonzero;fill:rgb(0%,0%,0%);fill-opacity:1;" d="M 31.378906 11.253906 C 31.347656 11.269531 31.285156 11.320312 31.238281 11.363281 C 31.097656 11.507812 31.082031 11.726562 31.203125 11.84375 C 31.257812 11.894531 31.410156 11.945312 31.546875 11.957031 C 31.855469 11.988281 32.007812 11.621094 31.792969 11.375 C 31.679688 11.242188 31.515625 11.195312 31.378906 11.253906 Z M 31.378906 11.253906 "/>
<path style=" stroke:none;fill-rule:nonzero;fill:rgb(0%,0%,0%);fill-opacity:1;" d="M 37.898438 11.394531 C 37.53125 11.515625 37.34375 11.90625 37.472656 12.273438 C 37.507812 12.367188 37.542969 12.417969 37.667969 12.542969 C 37.839844 12.710938 37.941406 12.769531 38.105469 12.796875 C 38.316406 12.832031 38.523438 12.765625 38.671875 12.613281 C 38.792969 12.492188 38.847656 12.363281 38.855469 12.183594 C 38.867188 11.960938 38.816406 11.835938 38.636719 11.648438 C 38.464844 11.464844 38.3125 11.382812 38.121094 11.375 C 38.039062 11.371094 37.953125 11.378906 37.898438 11.394531 Z M 37.898438 11.394531 "/>
<path style=" stroke:none;fill-rule:nonzero;fill:rgb(0%,0%,0%);fill-opacity:1;" d="M 34.386719 11.472656 C 34.105469 11.566406 33.972656 11.839844 34.089844 12.09375 C 34.136719 12.191406 34.316406 12.347656 34.4375 12.390625 C 34.601562 12.453125 34.800781 12.414062 34.929688 12.300781 C 35.082031 12.171875 35.128906 11.964844 35.042969 11.789062 C 35 11.695312 34.835938 11.542969 34.730469 11.496094 C 34.625 11.453125 34.480469 11.445312 34.386719 11.472656 Z M 34.386719 11.472656 "/>
<path style=" stroke:none;fill-rule:nonzero;fill:rgb(0%,0%,0%);fill-opacity:1;" d="M 39.46875 12.851562 C 39.199219 12.949219 39.015625 13.246094 39.042969 13.539062 C 39.058594 13.742188 39.152344 13.894531 39.347656 14.054688 C 39.546875 14.21875 39.65625 14.257812 39.867188 14.242188 C 40.039062 14.230469 40.164062 14.175781 40.28125 14.058594 C 40.425781 13.910156 40.453125 13.832031 40.453125 13.59375 C 40.453125 13.398438 40.449219 13.375 40.394531 13.277344 C 40.324219 13.144531 40.117188 12.949219 39.976562 12.882812 C 39.832031 12.8125 39.617188 12.800781 39.46875 12.851562 Z M 39.46875 12.851562 "/>
<path style=" stroke:none;fill-rule:nonzero;fill:rgb(0%,0%,0%);fill-opacity:1;" d="M 32.921875 13.074219 C 32.800781 13.132812 32.734375 13.246094 32.734375 13.390625 C 32.734375 13.558594 32.800781 13.664062 32.945312 13.734375 C 33.253906 13.890625 33.550781 13.597656 33.402344 13.28125 C 33.351562 13.175781 33.25 13.082031 33.15625 13.058594 C 33.054688 13.027344 33.015625 13.03125 32.921875 13.074219 Z M 32.921875 13.074219 "/>
<path style=" stroke:none;fill-rule:nonzero;fill:rgb(0%,0%,0%);fill-opacity:1;" d="M 35.902344 13.117188 C 35.617188 13.1875 35.460938 13.472656 35.574219 13.722656 C 35.613281 13.8125 35.773438 13.96875 35.882812 14.019531 C 36.101562 14.125 36.382812 14.054688 36.511719 13.859375 C 36.582031 13.753906 36.589844 13.550781 36.535156 13.4375 C 36.488281 13.34375 36.335938 13.203125 36.230469 13.152344 C 36.128906 13.109375 35.996094 13.09375 35.902344 13.117188 Z M 35.902344 13.117188 "/>
<path style=" stroke:none;fill-rule:nonzero;fill:rgb(0%,0%,0%);fill-opacity:1;" d="M 37.464844 14.632812 C 37.179688 14.714844 37.039062 15 37.160156 15.257812 C 37.207031 15.351562 37.355469 15.480469 37.480469 15.542969 C 37.570312 15.582031 37.734375 15.589844 37.84375 15.554688 C 38.011719 15.507812 38.152344 15.320312 38.15625 15.152344 C 38.15625 15.003906 38.121094 14.921875 38.003906 14.808594 C 37.824219 14.636719 37.652344 14.578125 37.464844 14.632812 Z M 37.464844 14.632812 "/>
<path style=" stroke:none;fill-rule:nonzero;fill:rgb(0%,0%,0%);fill-opacity:1;" d="M 34.507812 14.878906 C 34.351562 14.957031 34.28125 15.109375 34.320312 15.296875 C 34.335938 15.386719 34.359375 15.425781 34.417969 15.480469 C 34.5 15.5625 34.652344 15.609375 34.757812 15.589844 C 34.972656 15.550781 35.078125 15.320312 34.996094 15.082031 C 34.945312 14.933594 34.863281 14.871094 34.691406 14.855469 C 34.613281 14.847656 34.566406 14.851562 34.507812 14.878906 Z M 34.507812 14.878906 "/>
<path style=" stroke:none;fill-rule:nonzero;fill:rgb(0%,0%,0%);fill-opacity:1;" d="M 40.742188 17.855469 C 40.4375 17.921875 40.195312 18.109375 40.066406 18.382812 C 39.9375 18.660156 39.9375 18.667969 39.9375 20.300781 C 39.9375 21.929688 39.9375 21.9375 40.066406 22.214844 C 40.238281 22.582031 40.582031 22.773438 41.070312 22.773438 C 41.558594 22.773438 41.902344 22.582031 42.074219 22.214844 C 42.203125 21.9375 42.203125 21.929688 42.203125 20.300781 C 42.203125 18.667969 42.203125 18.660156 42.074219 18.382812 C 41.945312 18.105469 41.703125 17.921875 41.386719 17.855469 C 41.222656 17.820312 40.902344 17.820312 40.742188 17.855469 Z M 41.265625 18.566406 C 41.332031 18.601562 41.367188 18.640625 41.402344 18.710938 L 41.453125 18.808594 L 41.453125 21.792969 L 41.402344 21.890625 C 41.339844 22.015625 41.226562 22.078125 41.070312 22.078125 C 40.910156 22.078125 40.800781 22.015625 40.738281 21.890625 L 40.6875 21.792969 L 40.6875 18.808594 L 40.738281 18.710938 C 40.800781 18.582031 40.910156 18.519531 41.070312 18.519531 C 41.148438 18.519531 41.207031 18.535156 41.265625 18.566406 Z M 41.265625 18.566406 "/>
<path style=" stroke:none;fill-rule:nonzero;fill:rgb(0%,0%,0%);fill-opacity:1;" d="M 46.824219 17.863281 C 46.535156 17.941406 46.328125 18.109375 46.207031 18.367188 C 46.078125 18.632812 46.078125 18.648438 46.078125 20.300781 C 46.078125 21.949219 46.078125 21.964844 46.207031 22.234375 C 46.375 22.585938 46.707031 22.773438 47.171875 22.773438 C 47.636719 22.773438 47.972656 22.585938 48.136719 22.234375 C 48.242188 22.007812 48.265625 21.847656 48.265625 21.34375 L 48.265625 20.90625 L 47.5625 20.90625 L 47.5625 21.300781 C 47.5625 21.523438 47.554688 21.746094 47.542969 21.804688 C 47.511719 21.945312 47.414062 22.046875 47.285156 22.066406 C 47.042969 22.105469 46.882812 22.007812 46.839844 21.796875 C 46.824219 21.71875 46.820312 21.273438 46.824219 20.238281 L 46.828125 18.789062 L 46.878906 18.699219 C 46.914062 18.636719 46.953125 18.597656 47.015625 18.5625 C 47.195312 18.472656 47.414062 18.53125 47.503906 18.699219 C 47.550781 18.785156 47.554688 18.808594 47.558594 19.152344 L 47.566406 19.515625 L 48.265625 19.515625 L 48.265625 19.167969 C 48.265625 18.753906 48.238281 18.574219 48.136719 18.367188 C 47.96875 18.007812 47.632812 17.824219 47.164062 17.828125 C 47.035156 17.828125 46.914062 17.839844 46.824219 17.863281 Z M 46.824219 17.863281 "/>
<path style=" stroke:none;fill-rule:nonzero;fill:rgb(0%,0%,0%);fill-opacity:1;" d="M 3.996094 17.9375 C 4 17.96875 4.160156 19.054688 4.351562 20.351562 L 4.703125 22.714844 L 5.699219 22.714844 L 6.050781 20.351562 C 6.246094 19.054688 6.40625 17.96875 6.410156 17.9375 L 6.417969 17.882812 L 6.074219 17.882812 C 5.734375 17.882812 5.730469 17.882812 5.71875 17.929688 C 5.714844 17.953125 5.605469 18.789062 5.476562 19.789062 C 5.347656 20.789062 5.238281 21.609375 5.238281 21.613281 C 5.234375 21.617188 4.929688 19.316406 4.757812 17.957031 L 4.746094 17.882812 L 3.984375 17.882812 Z M 3.996094 17.9375 "/>
<path style=" stroke:none;fill-rule:nonzero;fill:rgb(0%,0%,0%);fill-opacity:1;" d="M 6.785156 20.300781 L 6.785156 22.714844 L 7.53125 22.714844 L 7.53125 17.882812 L 6.785156 17.882812 Z M 6.785156 20.300781 "/>
<path style=" stroke:none;fill-rule:nonzero;fill:rgb(0%,0%,0%);fill-opacity:1;" d="M 8.078125 20.300781 L 8.078125 22.714844 L 10.050781 22.714844 L 10.050781 22.019531 L 8.820312 22.019531 L 8.820312 17.882812 L 8.078125 17.882812 Z M 8.078125 20.300781 "/>
<path style=" stroke:none;fill-rule:nonzero;fill:rgb(0%,0%,0%);fill-opacity:1;" d="M 10.40625 20.300781 L 10.40625 22.714844 L 12.378906 22.714844 L 12.378906 22.019531 L 11.148438 22.019531 L 11.148438 17.882812 L 10.40625 17.882812 Z M 10.40625 20.300781 "/>
<path style=" stroke:none;fill-rule:nonzero;fill:rgb(0%,0%,0%);fill-opacity:1;" d="M 13.339844 17.902344 C 13.339844 17.910156 13.164062 18.992188 12.957031 20.304688 C 12.746094 21.617188 12.574219 22.695312 12.574219 22.703125 C 12.574219 22.707031 12.730469 22.714844 12.921875 22.714844 L 13.269531 22.714844 L 13.339844 22.238281 L 13.40625 21.757812 L 13.824219 21.761719 L 14.246094 21.769531 L 14.3125 22.238281 C 14.347656 22.492188 14.378906 22.707031 14.382812 22.710938 C 14.386719 22.710938 14.554688 22.710938 14.761719 22.710938 L 15.128906 22.703125 L 14.742188 20.300781 C 14.53125 18.976562 14.355469 17.890625 14.355469 17.886719 C 14.351562 17.875 13.339844 17.886719 13.339844 17.902344 Z M 13.984375 19.882812 C 14.070312 20.503906 14.144531 21.035156 14.148438 21.058594 L 14.160156 21.105469 L 13.492188 21.105469 L 13.5 21.046875 C 13.507812 21.019531 13.578125 20.488281 13.664062 19.867188 C 13.746094 19.246094 13.820312 18.742188 13.820312 18.746094 C 13.824219 18.75 13.898438 19.261719 13.984375 19.882812 Z M 13.984375 19.882812 "/>
<path style=" stroke:none;fill-rule:nonzero;fill:rgb(0%,0%,0%);fill-opacity:1;" d="M 15.46875 20.300781 L 15.46875 22.714844 L 16.132812 22.714844 L 16.136719 20.949219 L 16.144531 19.1875 L 16.59375 20.949219 L 17.042969 22.714844 L 17.816406 22.714844 L 17.816406 17.882812 L 17.152344 17.882812 L 17.148438 19.328125 L 17.140625 20.773438 L 16.777344 19.335938 L 16.414062 17.894531 L 15.941406 17.886719 L 15.46875 17.882812 Z M 15.46875 20.300781 "/>
<path style=" stroke:none;fill-rule:nonzero;fill:rgb(0%,0%,0%);fill-opacity:1;" d="M 18.347656 19.886719 C 18.355469 21.738281 18.359375 21.898438 18.390625 22.007812 C 18.507812 22.410156 18.765625 22.664062 19.140625 22.746094 C 19.335938 22.785156 19.617188 22.78125 19.800781 22.734375 C 20.183594 22.632812 20.40625 22.40625 20.527344 21.988281 C 20.558594 21.878906 20.5625 21.710938 20.570312 19.875 L 20.574219 17.882812 L 19.851562 17.882812 L 19.847656 19.847656 L 19.839844 21.808594 L 19.792969 21.898438 C 19.660156 22.140625 19.277344 22.140625 19.144531 21.898438 L 19.097656 21.808594 L 19.089844 19.847656 L 19.085938 17.882812 L 18.34375 17.882812 Z M 18.347656 19.886719 "/>
<path style=" stroke:none;fill-rule:nonzero;fill:rgb(0%,0%,0%);fill-opacity:1;" d="M 21.082031 20.300781 L 21.082031 22.714844 L 23.117188 22.714844 L 23.117188 22.019531 L 21.824219 22.019531 L 21.824219 20.546875 L 22.339844 20.542969 L 22.851562 20.539062 L 22.859375 20.195312 L 22.863281 19.851562 L 21.824219 19.851562 L 21.824219 18.582031 L 23.117188 18.582031 L 23.117188 17.882812 L 21.082031 17.882812 Z M 21.082031 20.300781 "/>
<path style=" stroke:none;fill-rule:nonzero;fill:rgb(0%,0%,0%);fill-opacity:1;" d="M 23.355469 17.9375 C 23.359375 17.96875 23.523438 19.054688 23.714844 20.351562 L 24.066406 22.714844 L 25.0625 22.714844 L 25.414062 20.351562 C 25.605469 19.054688 25.769531 17.96875 25.773438 17.9375 L 25.78125 17.882812 L 25.4375 17.882812 C 25.097656 17.882812 25.09375 17.882812 25.082031 17.929688 C 25.078125 17.953125 24.964844 18.789062 24.835938 19.789062 C 24.707031 20.789062 24.601562 21.609375 24.597656 21.613281 C 24.59375 21.617188 24.292969 19.316406 24.117188 17.957031 L 24.109375 17.882812 L 23.347656 17.882812 Z M 23.355469 17.9375 "/>
<path style=" stroke:none;fill-rule:nonzero;fill:rgb(0%,0%,0%);fill-opacity:1;" d="M 26.519531 17.902344 C 26.519531 17.910156 26.347656 18.992188 26.136719 20.304688 C 25.929688 21.617188 25.757812 22.695312 25.757812 22.703125 C 25.757812 22.707031 25.914062 22.714844 26.105469 22.714844 L 26.449219 22.714844 L 26.519531 22.238281 L 26.585938 21.757812 L 27.007812 21.761719 L 27.425781 21.769531 L 27.492188 22.238281 C 27.527344 22.492188 27.5625 22.707031 27.5625 22.710938 C 27.566406 22.710938 27.734375 22.710938 27.941406 22.710938 L 28.3125 22.703125 L 27.925781 20.300781 C 27.710938 18.976562 27.539062 17.890625 27.539062 17.886719 C 27.535156 17.875 26.519531 17.886719 26.519531 17.902344 Z M 27.164062 19.882812 C 27.25 20.503906 27.324219 21.035156 27.332031 21.058594 L 27.339844 21.105469 L 26.671875 21.105469 L 26.683594 21.046875 C 26.6875 21.019531 26.761719 20.488281 26.84375 19.867188 C 26.929688 19.246094 27 18.742188 27.003906 18.746094 C 27.007812 18.75 27.078125 19.261719 27.164062 19.882812 Z M 27.164062 19.882812 "/>
<path style=" stroke:none;fill-rule:nonzero;fill:rgb(0%,0%,0%);fill-opacity:1;" d="M 29.746094 20.300781 L 29.746094 22.714844 L 30.488281 22.714844 L 30.488281 20.605469 L 31.449219 20.605469 L 31.449219 19.910156 L 30.488281 19.910156 L 30.488281 18.582031 L 31.722656 18.582031 L 31.722656 17.882812 L 29.746094 17.882812 Z M 29.746094 20.300781 "/>
<path style=" stroke:none;fill-rule:nonzero;fill:rgb(0%,0%,0%);fill-opacity:1;" d="M 32.058594 19.886719 C 32.0625 21.738281 32.066406 21.898438 32.097656 22.007812 C 32.21875 22.410156 32.476562 22.664062 32.851562 22.746094 C 33.042969 22.785156 33.328125 22.78125 33.507812 22.734375 C 33.890625 22.632812 34.117188 22.40625 34.238281 21.988281 C 34.269531 21.878906 34.273438 21.710938 34.28125 19.875 L 34.285156 17.882812 L 33.5625 17.882812 L 33.554688 19.847656 L 33.550781 21.808594 L 33.5 21.898438 C 33.371094 22.140625 32.988281 22.140625 32.855469 21.898438 L 32.808594 21.808594 L 32.800781 19.847656 L 32.796875 17.882812 L 32.050781 17.882812 Z M 32.058594 19.886719 "/>
<path style=" stroke:none;fill-rule:nonzero;fill:rgb(0%,0%,0%);fill-opacity:1;" d="M 34.597656 18.230469 L 34.597656 18.582031 L 35.378906 18.582031 L 35.378906 22.714844 L 36.121094 22.714844 L 36.121094 18.582031 L 36.90625 18.582031 L 36.90625 17.882812 L 34.597656 17.882812 Z M 34.597656 18.230469 "/>
<path style=" stroke:none;fill-rule:nonzero;fill:rgb(0%,0%,0%);fill-opacity:1;" d="M 37.257812 20.300781 L 37.257812 22.714844 L 37.945312 22.714844 C 38.71875 22.714844 38.816406 22.703125 39.046875 22.585938 C 39.296875 22.460938 39.46875 22.21875 39.535156 21.90625 C 39.574219 21.714844 39.574219 20.988281 39.535156 20.796875 C 39.476562 20.519531 39.335938 20.316406 39.117188 20.195312 L 39.015625 20.136719 L 39.074219 20.109375 C 39.167969 20.070312 39.316406 19.914062 39.375 19.792969 C 39.457031 19.625 39.484375 19.441406 39.484375 19.101562 C 39.484375 18.613281 39.421875 18.378906 39.230469 18.171875 C 39.109375 18.042969 38.953125 17.960938 38.738281 17.917969 C 38.621094 17.890625 38.453125 17.882812 37.921875 17.882812 L 37.257812 17.882812 Z M 38.546875 18.625 C 38.6875 18.699219 38.730469 18.800781 38.738281 19.125 C 38.753906 19.542969 38.703125 19.699219 38.539062 19.796875 C 38.472656 19.832031 38.421875 19.84375 38.230469 19.847656 L 38 19.855469 L 38 18.582031 L 38.230469 18.582031 C 38.429688 18.582031 38.472656 18.585938 38.546875 18.625 Z M 38.535156 20.570312 C 38.632812 20.597656 38.730469 20.6875 38.773438 20.792969 C 38.800781 20.859375 38.808594 20.953125 38.816406 21.234375 C 38.828125 21.652344 38.808594 21.796875 38.726562 21.898438 C 38.648438 22 38.578125 22.015625 38.269531 22.015625 L 38 22.019531 L 38 20.546875 L 38.230469 20.546875 C 38.355469 20.546875 38.492188 20.558594 38.535156 20.570312 Z M 38.535156 20.570312 "/>
<path style=" stroke:none;fill-rule:nonzero;fill:rgb(0%,0%,0%);fill-opacity:1;" d="M 42.691406 20.300781 L 42.691406 22.714844 L 44.667969 22.714844 L 44.667969 22.019531 L 43.4375 22.019531 L 43.4375 17.882812 L 42.691406 17.882812 Z M 42.691406 20.300781 "/>
<path style=" stroke:none;fill-rule:nonzero;fill:rgb(0%,0%,0%);fill-opacity:1;" d="M 48.699219 20.300781 L 48.699219 22.714844 L 50.671875 22.714844 L 50.671875 22.019531 L 49.441406 22.019531 L 49.441406 17.882812 L 48.699219 17.882812 Z M 48.699219 20.300781 "/>
<path style=" stroke:none;fill-rule:nonzero;fill:rgb(0%,0%,0%);fill-opacity:1;" d="M 51.027344 19.886719 C 51.035156 21.738281 51.039062 21.898438 51.070312 22.007812 C 51.1875 22.410156 51.445312 22.664062 51.824219 22.746094 C 52.015625 22.785156 52.296875 22.78125 52.480469 22.734375 C 52.863281 22.632812 53.085938 22.40625 53.210938 21.988281 C 53.242188 21.878906 53.246094 21.710938 53.25 19.875 L 53.257812 17.882812 L 52.53125 17.882812 L 52.527344 19.847656 L 52.519531 21.808594 L 52.472656 21.898438 C 52.339844 22.140625 51.957031 22.140625 51.828125 21.898438 L 51.777344 21.808594 L 51.773438 19.847656 L 51.765625 17.882812 L 51.023438 17.882812 Z M 51.027344 19.886719 "/>
<path style=" stroke:none;fill-rule:nonzero;fill:rgb(0%,0%,0%);fill-opacity:1;" d="M 53.761719 20.300781 L 53.761719 22.714844 L 54.453125 22.714844 C 55.226562 22.714844 55.320312 22.703125 55.554688 22.585938 C 55.800781 22.460938 55.976562 22.21875 56.039062 21.90625 C 56.082031 21.714844 56.082031 20.988281 56.039062 20.796875 C 55.980469 20.519531 55.84375 20.316406 55.625 20.195312 L 55.519531 20.136719 L 55.582031 20.109375 C 55.675781 20.070312 55.820312 19.914062 55.878906 19.792969 C 55.960938 19.625 55.992188 19.441406 55.992188 19.101562 C 55.992188 18.613281 55.925781 18.378906 55.734375 18.171875 C 55.613281 18.042969 55.460938 17.960938 55.246094 17.917969 C 55.125 17.890625 54.960938 17.882812 54.425781 17.882812 L 53.761719 17.882812 Z M 55.054688 18.625 C 55.195312 18.699219 55.234375 18.800781 55.246094 19.125 C 55.257812 19.542969 55.210938 19.699219 55.042969 19.796875 C 54.976562 19.832031 54.929688 19.84375 54.738281 19.847656 L 54.503906 19.855469 L 54.503906 18.582031 L 54.738281 18.582031 C 54.9375 18.582031 54.980469 18.585938 55.054688 18.625 Z M 55.039062 20.570312 C 55.136719 20.597656 55.238281 20.6875 55.28125 20.792969 C 55.304688 20.859375 55.316406 20.953125 55.324219 21.234375 C 55.332031 21.652344 55.3125 21.796875 55.230469 21.898438 C 55.152344 22 55.082031 22.015625 54.777344 22.015625 L 54.503906 22.019531 L 54.503906 20.546875 L 54.738281 20.546875 C 54.863281 20.546875 55 20.558594 55.039062 20.570312 Z M 55.039062 20.570312 "/>
<path style=" stroke:none;fill-rule:nonzero;fill:rgb(0%,0%,0%);fill-opacity:1;" d="M 27.34375 25.347656 C 27.1875 25.382812 27.074219 25.449219 26.972656 25.566406 C 26.859375 25.695312 26.832031 25.800781 26.820312 26.09375 L 26.808594 26.34375 L 26.914062 26.355469 C 27.046875 26.375 27.171875 26.375 27.210938 26.359375 C 27.238281 26.347656 27.242188 26.308594 27.242188 26.132812 C 27.242188 25.886719 27.273438 25.808594 27.390625 25.746094 C 27.507812 25.683594 27.75 25.6875 27.867188 25.753906 C 28.015625 25.839844 28.027344 25.878906 28.027344 26.363281 L 28.027344 26.78125 L 27.667969 26.792969 C 27.273438 26.804688 27.167969 26.828125 27.015625 26.933594 C 26.941406 26.980469 26.90625 27.027344 26.851562 27.132812 L 26.785156 27.269531 L 26.777344 27.714844 C 26.773438 28.066406 26.777344 28.179688 26.800781 28.277344 C 26.882812 28.597656 27.097656 28.746094 27.488281 28.746094 C 27.660156 28.746094 27.695312 28.738281 27.796875 28.691406 C 27.855469 28.660156 27.957031 28.589844 28.015625 28.535156 C 28.074219 28.476562 28.128906 28.433594 28.128906 28.4375 C 28.132812 28.441406 28.15625 28.5 28.179688 28.5625 L 28.226562 28.675781 L 28.457031 28.675781 L 28.453125 27.277344 C 28.445312 25.71875 28.449219 25.777344 28.304688 25.585938 C 28.265625 25.535156 28.1875 25.464844 28.132812 25.433594 C 27.941406 25.324219 27.609375 25.289062 27.34375 25.347656 Z M 28.027344 27.574219 C 28.027344 27.929688 28.019531 27.976562 27.984375 28.050781 C 27.839844 28.351562 27.394531 28.476562 27.25 28.257812 C 27.207031 28.195312 27.203125 28.175781 27.203125 27.777344 C 27.203125 27.175781 27.195312 27.1875 27.699219 27.183594 L 28.027344 27.183594 Z M 28.027344 27.574219 "/>
<path style=" stroke:none;fill-rule:nonzero;fill:rgb(0%,0%,0%);fill-opacity:1;" d="M 32.214844 25.347656 C 32.035156 25.386719 31.929688 25.445312 31.832031 25.558594 C 31.667969 25.738281 31.671875 25.703125 31.671875 27.046875 L 31.671875 28.226562 L 31.730469 28.351562 C 31.847656 28.617188 32.117188 28.753906 32.515625 28.753906 C 33.097656 28.753906 33.390625 28.4375 33.335938 27.855469 L 33.320312 27.703125 L 32.914062 27.703125 L 32.914062 27.914062 C 32.914062 28.171875 32.886719 28.242188 32.757812 28.316406 C 32.683594 28.359375 32.644531 28.367188 32.503906 28.367188 C 32.308594 28.367188 32.207031 28.324219 32.136719 28.21875 C 32.09375 28.15625 32.09375 28.136719 32.09375 27.667969 L 32.09375 27.183594 L 33.335938 27.175781 L 33.335938 26.519531 C 33.335938 25.882812 33.332031 25.859375 33.289062 25.75 C 33.234375 25.605469 33.101562 25.46875 32.96875 25.40625 C 32.769531 25.320312 32.457031 25.292969 32.214844 25.347656 Z M 32.761719 25.757812 C 32.90625 25.839844 32.914062 25.882812 32.914062 26.363281 L 32.914062 26.789062 L 32.089844 26.789062 L 32.097656 26.332031 L 32.101562 25.875 L 32.164062 25.8125 C 32.285156 25.6875 32.59375 25.660156 32.761719 25.757812 Z M 32.761719 25.757812 "/>
<path style=" stroke:none;fill-rule:nonzero;fill:rgb(0%,0%,0%);fill-opacity:1;" d="M 24.582031 27.035156 L 24.582031 28.675781 L 25.011719 28.675781 L 25.011719 27.703125 L 25.207031 27.703125 C 25.675781 27.699219 25.921875 27.609375 26.0625 27.378906 C 26.15625 27.222656 26.171875 27.113281 26.164062 26.484375 C 26.15625 25.925781 26.15625 25.898438 26.113281 25.804688 C 26.023438 25.609375 25.839844 25.464844 25.625 25.417969 C 25.5625 25.40625 25.324219 25.394531 25.050781 25.394531 L 24.582031 25.394531 Z M 25.5625 25.816406 C 25.742188 25.910156 25.765625 26.011719 25.753906 26.660156 C 25.746094 27.109375 25.734375 27.160156 25.617188 27.25 C 25.554688 27.296875 25.332031 27.328125 25.15625 27.3125 L 25.011719 27.300781 L 25.011719 25.773438 L 25.246094 25.773438 C 25.445312 25.773438 25.488281 25.78125 25.5625 25.816406 Z M 25.5625 25.816406 "/>
<path style=" stroke:none;fill-rule:nonzero;fill:rgb(0%,0%,0%);fill-opacity:1;" d="M 29.296875 27.035156 L 29.296875 28.675781 L 29.804688 28.675781 C 30.253906 28.675781 30.324219 28.671875 30.433594 28.636719 C 30.660156 28.5625 30.792969 28.445312 30.875 28.238281 C 30.90625 28.15625 30.910156 28.058594 30.910156 27.046875 C 30.910156 26.015625 30.90625 25.933594 30.871094 25.835938 C 30.820312 25.683594 30.65625 25.515625 30.5 25.453125 C 30.386719 25.410156 30.355469 25.40625 29.839844 25.398438 L 29.296875 25.394531 Z M 30.3125 25.816406 C 30.363281 25.84375 30.421875 25.894531 30.445312 25.929688 L 30.488281 26 L 30.488281 27.035156 C 30.488281 28 30.488281 28.074219 30.453125 28.136719 C 30.390625 28.257812 30.304688 28.289062 29.988281 28.292969 L 29.707031 28.300781 L 29.707031 25.773438 L 29.96875 25.773438 C 30.199219 25.773438 30.238281 25.78125 30.3125 25.816406 Z M 30.3125 25.816406 "/>
<path style=" stroke:none;fill-rule:nonzero;fill:rgb(0%,0%,0%);fill-opacity:1;" d="M 34.148438 27.035156 L 34.148438 28.675781 L 35.4375 28.675781 L 35.4375 28.296875 L 34.558594 28.296875 L 34.558594 25.394531 L 34.148438 25.394531 Z M 34.148438 27.035156 "/>
<path style=" stroke:none;fill-rule:nonzero;fill:rgb(0%,0%,0%);fill-opacity:1;" d="M 37.746094 27.339844 C 37.746094 27.480469 37.75 27.5 37.785156 27.507812 C 37.816406 27.515625 37.824219 27.535156 37.824219 27.628906 L 37.824219 27.742188 L 58.984375 27.742188 L 58.984375 27.582031 C 58.984375 27.453125 58.976562 27.421875 58.953125 27.421875 C 58.929688 27.421875 58.925781 27.398438 58.925781 27.304688 L 58.925781 27.183594 L 37.746094 27.183594 Z M 37.746094 27.339844 "/>
<path style=" stroke:none;fill-rule:nonzero;fill:rgb(0%,0%,0%);fill-opacity:1;" d="M 0 27.394531 C 0 27.546875 0.00390625 27.5625 0.0390625 27.5625 C 0.0742188 27.5625 0.078125 27.574219 0.078125 27.671875 L 0.078125 27.78125 L 21.238281 27.78125 L 21.238281 27.621094 C 21.238281 27.496094 21.234375 27.460938 21.210938 27.460938 C 21.1875 27.460938 21.179688 27.4375 21.179688 27.34375 L 21.179688 27.222656 L 0 27.222656 Z M 0 27.394531 "/>
</g>
</svg>
