<svg viewBox="518.3352080989877 352.08000000000004 850.933633295838 388.8" version="1.1" xmlns="http://www.w3.org/2000/svg" data-name="Capa 1" id="Capa_1" style="max-height: 500px" width="850.933633295838" height="388.8">
  <defs>
    <style>
      .cls-1 {
        fill: #fff;
        stroke-width: 0px;
      }
    </style>
  </defs>
  <g>
    <path d="M1338.05,476.62c0,.08.04.16.04.23,2.3,13.22.97,26.87-1.75,40.01-12.71,61.62-55.42,113.96-106.9,150.15-3,2.11-6.36,4.25-9.98,3.78-2.34-.31-4.41-1.68-6.36-3-23.91-16.61-45.32-36.7-63.45-59.43-17.82-22.39-32.1-49.45-39.78-77.1-6.28-22.66-7.25-47.38,1.21-69.34,2.77-7.18,6.59-14.12,12.44-19.11,6.16-5.26,14-7.99,21.64-10.65,16.3-5.58,32.56-11.15,48.87-16.77,9.48-3.24,19.19-6.55,29.21-6.24,7.64.23,15.09,2.57,22.39,4.87,13.84,4.37,27.65,8.77,41.5,13.14,11.35,3.59,23.01,7.37,32.17,14.98,10.26,8.54,16.42,21.33,18.76,34.48ZM1322.06,471.4c4.56-.12,7.88-.19,9.55-.23-.97-8.74-6.59-16.15-12.28-22.85-2.61-3.08-5.34-6.12-8.74-8.35-3.67-2.38-7.88-3.7-12.05-4.99-23.17-7.1-46.33-14.16-69.5-21.25-3.12-.94-6.28-1.91-9.52-1.72-2.53.16-4.95.94-7.33,1.75-23.59,8.03-47.15,16.03-70.71,24.02-3.78,1.29-7.6,2.57-10.84,4.87-4.37,3.08-7.37,7.68-10.3,12.13-4.37,6.75-8.85,13.88-9.52,21.88.04-.74,166.68-4.29,211.22-5.26ZM1186.5,626.42v4.95c0,3,0,6.16,1.44,8.77.97,1.79,2.53,3.24,4.06,4.6,4.84,4.25,9.94,8.23,15.21,11.93.43-58.26.62-116.53.62-174.76,0-.9-.04-1.87-.55-2.61-.82-1.09-2.38-1.17-3.74-1.17-4.41.04-8.85.08-13.26.12-.86,0-1.87.08-2.46.74-.51.55-.51,1.36-.55,2.14-.27,48.4-.74,96.84-.78,145.27ZM1236.69,589.37c-.08,21.88-.19,43.76-.27,65.64,6.08-4.37,11.89-9.16,17.28-14.39,1.17-1.13,2.34-2.3,2.92-3.78.55-1.36.55-2.85.58-4.29.43-50.86.62-101.71.58-152.57,0-.9-.04-1.91-.7-2.57s-1.72-.66-2.61-.62c-5.11.16-10.22.31-15.33.51-.58,0-1.21.08-1.64.47-.47.43-.51,1.17-.51,1.83-.08,36.54-.16,73.16-.31,109.78ZM1145.51,479.31c-1.25.08-2.46.23-3.7.39-.9.12-1.83.31-2.5.94-.74.7-.86,1.79-.94,2.81-1.6,18.41.39,36.97-.19,55.46-.39,12.52-1.99,25.19.47,37.44,2.61,13.1,9.87,25.19,20.2,33.66.86-41.96.78-83.93,1.05-125.89,0-1.44-.08-3.12-1.25-4.02-.66-.51-1.52-.62-2.38-.7-3.59-.31-7.18-.35-10.76-.08ZM1296.79,475.53c-4.17-.27-9.48-.35-11,1.83-2.14,3.12-.16,15.05-.19,18.99-.16,12.83-.51,25.62-.74,38.45-.23,12.44-.43,24.88-.35,37.32.04,6.4.12,12.79.31,19.19.08,2.92,2.5,16.07.78,17.98,5.54-6.32,10.57-13.1,15.05-20.2,2.26-3.55,4.37-7.29,5.34-11.39.74-3.2.74-6.55.78-9.83.04-18.88.04-37.75.08-56.63,0-9.44.08-18.88.04-28.31-.04-6.16.23-6.86-6.08-7.14-1.01-.04-2.42-.16-4.02-.27ZM1195.58,653.68c-.08-.12-.12-.27-.35-.31-.19,0-.31.12-.31.27,0,.23.12.43.39.39.16,0,.27-.12.27-.35Z" class="cls-1"/>
    <path d="M1212.86,453.89c-.04,1.17-.04,2.38.16,3.55.08.62.08,1.25.08,1.87,0,.27-.04.58.04.86.58,2.96.9,3.04,3.7,3.82.58.16,1.25.19,1.72.66.7.66.7,1.25,0,1.87-.47.43-1.05.66-1.72.66-1.6,0-3.2.08-4.76-.12-.43-.04-.86,0-1.29.04-2.03.31-4.09.27-6.16.35-1.79.04-3.55.16-5.3.43-.7.12-1.4.27-2.14.16-.58-.08-1.13-.27-1.25-.94-.16-.66-.08-1.33.55-1.75.62-.47,1.33-.82,2.07-1.09,1.13-.43,1.79-1.13,2.22-2.3.66-1.68.9-3.35.58-5.11-.19-1.13.04-2.22.19-3.35.19-1.52.43-3,.19-4.56-.08-.47.04-.94.08-1.4.04-.55.08-1.13-.04-1.68-.12-.58-.12-1.17-.04-1.75.19-1.91.19-3.86.04-5.77-.12-1.48-.16-2.92.23-4.37.23-.86.08-1.75-.35-2.53s-1.01-1.4-2.03-1.44c-.82-.04-1.6-.23-2.42-.27-.94-.04-1.48-.55-1.91-1.29-.19-.35-.12-.58.12-.82.47-.47.97-.86,1.64-.97.23-.04.51-.12.74-.12,1.91,0,3.63-.7,5.34-1.52,2.14-1.01,4.41-1.91,6.55-2.96,2.14-1.05,4.52-1.64,6.59-2.81.74-.43,1.56-.66,2.38-.74.62-.08,1.25-.16,1.87-.23.82-.08,1.56.12,2.22.55,1.6,1.05,3.35,1.75,5.23,2.22.7.16,1.36.43,2.03.66.9.31,1.64.27,2.38-.43,1.09-1.05,2.11-.9,2.96.35.47.66.9,1.36,1.13,2.14.82,2.53,2.03,4.95,2.89,7.49.43,1.25.82,2.53,1.6,3.67.43.62.43,1.36.16,2.07-.43,1.29-1.68,1.75-2.85,1.09-.66-.39-1.17-.94-1.52-1.6-.7-1.44-1.52-2.81-2.46-4.09-.23-.31-.31-.74-.55-1.09-.78-1.09-1.68-2.03-2.92-2.53-1.68-.7-3.35-1.29-5.15-1.72-.43-.12-.82-.27-1.25-.43-.97-.43-1.99-.47-3-.12-.51.16-1.01.35-1.48.51-.43.16-.86.39-1.33.47-1.72.27-3.12,1.21-4.64,1.91-.43.19-.66.55-.7,1.01v.39c.12,2.53-.35,5.03-.7,7.53-.08.7,0,1.36.12,2.03.08.55.43.86.94,1.05.82.27,1.68.19,2.5.12.43-.04.86-.12,1.29-.04,1.79.16,2.69-.78,2.5-2.57-.12-1.01-.27-2.03-.43-3.04-.08-.39-.12-.82-.19-1.21-.08-.35,0-.66.12-1.01.51-1.17,1.48-1.4,2.46-.55.39.39.62.82.78,1.36.78,2.89,1.72,5.73,2.38,8.66.19.86.47,1.68.94,2.42.35.55.62,1.17.78,1.79.47,2.14,1.52,3.98,2.57,5.85.31.58.35,1.21.23,1.83-.12.58-.51.9-1.13.97-.78.08-1.48-.16-2.18-.35-.35-.12-.55-.43-.66-.74-.12-.31-.16-.66-.27-.97-.39-1.09-.78-2.18-1.91-2.77-.55-.27-.9-.74-1.33-1.17-.62-.66-1.36-.9-2.26-.86-1.21.08-2.42.08-3.63.12-.39,0-.74,0-1.13.04-1.44.08-2.03.62-2.11,2.11-.12.78-.08,1.64-.08,2.53Z" class="cls-1"/>
    <path d="M1164.19,468.98c-3.9-.55-7.88.12-11.89.04-1.75-.04-3.51.43-5.3.62-1.09.12-2.18.19-3.24-.12-.43-.12-.82-.27-1.21-.51-.58-.43-.66-.94-.23-1.52.31-.43.74-.74,1.21-1.01.43-.27.86-.51,1.29-.78.78-.51,1.05-1.25.9-2.18-.19-1.09-.66-2.07-1.21-3-.78-1.29-1.68-2.5-2.69-3.59-.55-.58-1.05-1.25-1.4-1.99-1.09-2.46-4.56-4.17-7.1-3.59-.35.08-.66.08-1.01.12-.31.04-.62,0-.94-.12-.51-.23-1.01-.55-1.13-1.17s.31-.97.74-1.29c.97-.7,2.07-1.17,3.2-1.48,4.21-1.13,8.23-2.81,12.4-4.13.78-.23,1.56-.51,2.34-.58.7-.08,1.48-.16,1.95.58.47.78,0,1.44-.39,2.07-.23.39-.58.66-.97.82-.78.31-1.01.94-.94,1.75.08.94.31,1.79.78,2.57,1.25,2.14,2.53,4.29,4.02,6.28.74,1.01,1.56,1.95,2.07,3.12.16.31.35.62.74.58s.58-.35.66-.7c.19-.86.55-1.64,1.05-2.38.08-.12.12-.23.16-.35.86-3.04,2.42-5.81,3.43-8.77.27-.78.58-1.6.82-2.38.19-.55.39-1.05.74-1.48s.55-.9.58-1.44c.08-.58-.08-.82-.66-.94-.55-.12-1.13-.16-1.68-.19-.51-.04-1.05-.08-1.21-.66-.19-.58,0-1.09.39-1.56.35-.39.78-.62,1.25-.82.58-.27,1.21-.51,1.83-.66,2.81-.7,5.42-1.83,7.99-3.12,1.13-.55,2.22-1.09,3.47-1.33.47-.08.94-.08,1.36.08.9.31,1.13.97.74,1.87-.23.47-.55.82-.9,1.17-.7.7-1.48,1.33-2.34,1.87-2.22,1.4-3.67,3.39-4.6,5.85-1.99,5.23-4.06,10.45-6.36,15.56-.35.78-.66,1.64-.66,2.53,0,1.21.58,2.07,1.75,2.5.74.27,1.52.31,2.26.51.58.12,1.17.27,1.6.7.86.78.7,1.68-.35,2.11-.97.47-2.11.47-3.31.55Z" class="cls-1"/>
    <path d="M1282.51,464.85c-2.3.23-4.25.04-6.12-.9-.35-.16-.7-.27-1.05-.39-2.53-.78-4.37-2.46-6.01-4.45-.47-.55-.74-1.21-.9-1.91-.51-2.34-1.13-4.64-1.44-7.06-.19-1.44-.16-2.85.43-4.21.35-.82.58-1.72.74-2.61.12-.78.47-1.4.9-2.03.7-.94,1.48-1.83,2.3-2.69.47-.51,1.05-.86,1.72-1.13.86-.31,1.72-.55,2.61-.7.7-.12,1.44-.08,2.11.19,1.83.7,3.74,1.21,5.62,1.79.66.23,1.36.43,2.03.74,1.05.47,2.18.51,3.28.62.55.04.86-.16,1.01-.74.16-.47.23-.97.35-1.44.12-.51.39-.86.9-.94.58-.08,1.17,0,1.48.58.55,1.05,1.21,2.07,1.21,3.28,0,.47.19.86.43,1.21.39.62.58,1.29.55,2.03-.04,1.21.27,2.26,1.01,3.24s1.09,2.11.97,3.31c-.12,1.44-1.17,2.07-2.5,1.52-.9-.35-1.44-1.09-1.91-1.87-.58-1.05-1.4-1.91-2.11-2.85-.94-1.29-2.3-1.83-3.7-2.38-.35-.16-.78-.19-1.17-.23-1.01-.12-1.95-.35-2.89-.78-.9-.43-1.79-.43-2.73-.19-.7.16-1.05.55-1.17,1.25-.23,1.25-.19,2.53-.31,3.82-.04.51-.08.97-.19,1.48-.35,1.33-.23,2.65-.16,4.02.08.97.51,1.79,1.29,2.42.27.19.55.43.74.7.78,1.01,1.95,1.36,3.04,1.91.58.27,1.21.23,1.83.08,1.44-.31,2.77-.9,4.21-1.25.27-.08.47-.27.66-.51.35-.39.74-.66,1.21-.86.9-.35,1.79-.7,2.73-1.01.43-.16.9-.19,1.36-.08,1.44.31,2.03,1.72,1.17,2.96-.94,1.33-2.07,2.42-3.31,3.39-.55.43-1.21.62-1.87.78-.82.19-1.64.39-2.42.7-1.95.86-4.06,1.25-5.93,1.17Z" class="cls-1"/>
    <path d="M1247.38,465.66c-1.52-.23-3.2-.55-4.09-2.38-.94-1.99-.27-4.17,1.72-5.15.43-.19.82-.39,1.17-.74.23-.23.58-.35.94-.43.82-.16,1.68-.12,2.5-.12.19,0,.43.04.62.16,1.05.66,2.07,1.4,2.73,2.5.55.9.51,1.87.04,2.77-.97,1.95-3.2,3.35-5.62,3.39Z" class="cls-1"/>
    <path d="M1310.71,465.24c-1.79.04-3.31-.47-4.52-1.83-.27-.31-.58-.55-.9-.82-1.25-1.17-1.33-2.85.04-3.86,1.64-1.21,3.43-1.99,5.58-1.52.97.19,1.79.66,2.53,1.33,1.21,1.09,1.4,2.46,1.05,3.94-.16.66-.55,1.25-.94,1.83-.51.66-1.25.9-2.03.97-.23-.04-.55-.04-.82-.04Z" class="cls-1"/>
    <path d="M1182.32,467.07c-1.56-.12-3-.55-4.13-1.6-1.05-.97-1.68-2.14-1.25-3.67.19-.62.51-1.13,1.05-1.48.78-.51,1.6-.97,2.46-1.36,1.87-.82,4.91.31,5.85,2.14.12.23.23.51.27.78.16,1.4-.35,2.65-1.09,3.74-.74,1.09-1.95,1.36-3.16,1.44Z" class="cls-1"/>
  </g>
  <g>
    <path d="M717.63,428.98c-.91.34-2.74,1.32-4,2.12-8.06,5.37-5.77,14.92,3.6,14.92,12.41.06,18.41,4.23,18.41,12.86,0,4.86,1.26,4.8,3.66-.23,1.6-3.37,1.77-4.29,1.77-8.92-.06-3.95-.34-5.89-1.37-8.4-1.66-4.29-6.06-9.09-10.12-11.09-3.49-1.72-9.15-2.34-11.95-1.26Z" class="cls-1"/>
    <path d="M704.02,439.56c-4.46,8.92-3.54,18.41,2.46,24.93,5.2,5.72,13.04,7.89,19.15,5.32,4.52-1.94,6.92-5.15,7.49-10.23.8-6.69-2.34-9.32-12.29-10.18-9.26-.8-12.86-3.2-14.29-9.55-.29-1.37-.69-2.63-.8-2.8-.17-.17-.97.97-1.72,2.52Z" class="cls-1"/>
    <path d="M803.39,446.3c-31.22,6.52-57.75,28.76-79.99,67.24l-3.66,6.29-2.06-3.77c-7.43-13.26-21.55-26.07-36.59-33.22-10.69-5.03-22.64-8.06-34.48-8.63-5.95-.29-7.03-.23-7.03.51,0,1.94,1.37,2.63,6.12,2.92,20.98,1.54,40.99,15.44,51.8,36.02,5.6,10.63,8.52,22.01,9.21,35.56l.11,2.29,6.23.34c3.49.23,8.18.4,10.52.46l4.17.06-.29-2.46c-.34-3.09,2.52-10.75,9.03-24.13,9.61-19.67,18.75-32.7,31.79-45.05,10.12-9.66,18.47-15.04,30.53-19.78,10.23-4,14.64-4.8,26.07-4.8,9.95,0,10.12,0,15.72,1.94,13.61,4.63,21.73,10.18,31.39,21.55,5.83,6.8,7.66,9.72,10.81,17.21,3.2,7.55,3.89,11.38,3.95,21.5.06,10.69-1.49,17.38-6.52,28.13-2.12,4.69-2.12,4.75-.86,4.75,1.77,0,2.63-1.14,5.66-7.43,4.97-10.52,6.69-17.67,6.69-28.19,0-16.64-5.09-31.05-15.49-43.62-10.52-12.69-28.99-23.38-45.28-26.3-7.26-1.26-19.9-.97-27.56.63Z" class="cls-1"/>
    <path d="M825.63,471.4c-1.66,1.66-1.94,2.34-1.94,4.69s.23,2.92,2.4,4.92c3.77,3.49,6.69,3.6,9.72.34,1.26-1.37,1.6-2.23,1.6-4.29,0-2.29-.29-2.86-2.57-5.09-2.17-2.17-2.86-2.52-4.92-2.52-1.89,0-2.69.34-4.29,1.94Z" class="cls-1"/>
    <path d="M801.62,477.98c-1.49.63-3.09,2.8-3.09,4.17,0,3.14,4.57,6.75,7.55,6,4.35-1.09,5.49-5.32,2.4-8.46-1.83-1.83-4.86-2.57-6.86-1.72Z" class="cls-1"/>
    <path d="M838.78,487.98c-1.66,1.66-1.94,2.34-1.94,4.63,0,2.4.29,2.97,2.17,4.92,3.54,3.49,6.58,3.66,9.78.46,1.49-1.43,1.77-2.23,1.77-4.35,0-2.34-.29-2.92-2.52-5.09-2.12-2.17-2.8-2.52-4.92-2.52-1.94,0-2.74.34-4.35,1.94Z" class="cls-1"/>
    <path d="M815.34,491.76c-2.63,1.03-3.89,4.86-2.52,7.43.91,1.77,4.4,3.6,6.06,3.2,2.12-.57,4.23-3.09,4.23-5.03,0-.97-.23-1.54-.57-1.32-.29.17-.4,0-.23-.46.34-.97-1.66-3.09-3.66-3.89-1.54-.63-1.72-.57-3.32.06Z" class="cls-1"/>
    <path d="M787.1,494.04c-.63.63-1.14,1.49-1.14,1.94,0,1.26.63,2.63,1.26,2.63.29,0,.91.4,1.37.86,1.26,1.2,2.86,1.09,4.23-.4,1.49-1.66,1.43-2.8-.29-4.69-1.66-1.77-3.83-1.94-5.43-.34Z" class="cls-1"/>
    <path d="M854.85,501.7c-2.92,1.26-4,2.97-4,6.17,0,2.69.17,3.03,2.4,5.03,1.37,1.2,3.14,2.29,4,2.46,3.66.69,7.32-2.63,7.2-6.58-.06-2.69-2.4-6-5.09-7.09-2.29-.97-2.34-.97-4.52,0Z" class="cls-1"/>
    <path d="M775.78,502.73c-1.89,1.89.34,5.49,3.03,4.8,1.09-.29,1.43-.74,1.43-1.94-.06-2.92-2.69-4.63-4.46-2.86Z" class="cls-1"/>
    <path d="M826.38,505.48c-1.72,1.37-2.4,3.77-1.6,5.83.63,1.72,3.89,3.89,5.83,3.89s4.12-1.6,3.72-2.69c-.17-.46-.11-.69.17-.51.74.46,1.2-1.89.63-3.32-.74-1.94-3.89-4.35-5.66-4.35-.91,0-2.29.51-3.09,1.14Z" class="cls-1"/>
    <path d="M800.02,506.68c-1.89,1.49-1.89,3.03,0,4.8,3.26,3.03,7.72.57,6.17-3.43-.34-.86-3.03-2.57-4.12-2.57-.29,0-1.2.51-2.06,1.2Z" class="cls-1"/>
    <path d="M788.64,516.8c-2.34,2.57.29,5.15,3.83,3.77,1.32-.51,1.2-3.49-.17-4.23-1.6-.86-2.63-.69-3.66.46Z" class="cls-1"/>
    <path d="M839.3,517.77c-1.37.97-2.23,4.06-1.6,6s4.4,4.12,6.35,3.66c4.52-1.03,5.72-5.43,2.34-8.69-2.12-2.06-4.97-2.46-7.09-.97Z" class="cls-1"/>
    <path d="M811.68,518.63c-.63.63-1.14,1.49-1.14,1.89,0,1.32,1.66,3.14,3.37,3.72,1.43.51,1.94.4,3.2-.51,1.77-1.43,1.83-3.26.06-4.97-1.66-1.54-4-1.6-5.49-.11Z" class="cls-1"/>
    <path d="M852.45,528.86c-4.35,2.69-2.29,8.86,3.26,9.61,1.89.29,2.57.11,3.72-.97,2-1.89,1.94-4.86-.17-7.26-2-2.4-4.4-2.86-6.8-1.37Z" class="cls-1"/>
    <path d="M801.33,530.52c-2.4,2-.17,5.37,2.86,4.4,2.12-.63,1.83-3.6-.46-4.86-.8-.4-1.43-.29-2.4.46Z" class="cls-1"/>
    <path d="M824.26,530.81c-1.89.97-2.23,3.77-.57,5.26.63.57,1.14.86,1.14.57,0-.23.4-.11.86.29,1.2,1.03,3.66.23,4.29-1.37.74-1.94.17-3.43-1.72-4.52-1.89-1.14-2.17-1.14-4-.23Z" class="cls-1"/>
    <path d="M836.04,542.98c-.51.46-.91,1.66-.91,2.52,0,3.43,5.66,4.75,7.38,1.66.74-1.37.69-1.6-.8-3.26-1.83-2.06-4.17-2.4-5.66-.91Z" class="cls-1"/>
    <path d="M813.51,544.47c-.91.91-.86,3.03.11,3.83.46.4,1.54.63,2.46.51,2.92-.34,2.34-5.03-.63-5.03-.69,0-1.54.29-1.94.69Z" class="cls-1"/>
    <path d="M861.71,567.74c-4.29,1.94-4.57,3.03-4.57,18.07s.17,15.49,3.66,17.84c1.54,1.03,2.74,1.32,5.66,1.32,3.49,0,3.77-.11,5.83-2.17,2.74-2.74,3.03-4.63,2.74-19.27-.23-12.58-.63-13.89-4.63-15.78-3.03-1.37-5.77-1.37-8.69,0ZM868.17,573.06c.51.51.69,4.23.69,13.15,0,11.72-.06,12.46-1.09,13.04-1.54.8-2.69.74-3.72-.34-.8-.74-.91-2.74-.91-13.04,0-12.98.11-13.49,2.86-13.49.8,0,1.77.29,2.17.69Z" class="cls-1"/>
    <path d="M910.94,567.23c-2.29.74-4.23,2.69-4.92,5.09-.29,1.14-.57,7.43-.57,14.07,0,10.58.17,12.29,1.09,14.41,1.43,3.03,3.54,4.17,7.95,4.17,5.83,0,8.12-2.86,8.12-10.01v-4.29h-5.15v3.32c0,4.06-1.14,6-3.32,5.72-2.57-.29-2.97-2-2.97-13.61s.34-13.32,3.32-13.61c1.54-.17,1.94.06,2.4,1.32.34.8.57,2.52.57,3.77v2.23h5.15v-3.43c0-4.92-1.09-7.2-4.12-8.58-2.63-1.2-4.86-1.37-7.55-.57Z" class="cls-1"/>
    <path d="M573.83,568.2c0,.57,1.2,9.09,2.69,18.87l2.69,17.9h7.66l.34-1.89c.29-1.77,1.26-8.06,3.77-24.99.63-4.23,1.32-8.4,1.49-9.32q.29-1.54-2.46-1.54h-2.8l-1.6,12.12c-1.54,11.72-2.46,17.15-2.57,15.27-.06-.46-.8-6.63-1.77-13.66-.91-7.03-1.72-12.98-1.72-13.26,0-.23-1.26-.46-2.86-.46-2.34,0-2.86.17-2.86.97Z" class="cls-1"/>
    <path d="M595.56,586.09v18.87h5.72v-37.74h-5.72v18.87Z" class="cls-1"/>
    <path d="M605.85,586.09v18.87h15.44v-5.72h-9.72v-32.02h-5.72v18.87Z" class="cls-1"/>
    <path d="M624.15,586.09v18.87h15.44v-5.72h-9.72v-32.02h-5.72v18.87Z" class="cls-1"/>
    <path d="M647.02,567.63c0,.23-1.26,8.4-2.86,18.12-1.54,9.72-2.86,18.01-2.86,18.41,0,.57.8.8,2.52.8,2.74,0,2.57.29,3.54-5.32l.34-2.12h6.63l.51,3.54.46,3.6,3.03.17,3.03.17-.34-1.89c-.17-1.03-1.54-9.49-3.09-18.75l-2.69-16.87-4.12-.17c-2.29-.11-4.12.06-4.12.29ZM652.39,583.58c1.26,9.32,1.32,8.8-1.37,8.8-2.06,0-2.29-.11-2.29-1.49,0-3.26,1.94-15.72,2.29-14.98.23.4.86,3.83,1.37,7.66Z" class="cls-1"/>
    <path d="M664.17,586.09v18.87h5.15l.06-13.61.06-13.55,3.54,13.44,3.6,13.44,2.92.17,2.97.17v-37.79h-5.15l-.06,10.69c-.06,11.84,0,11.84-3.09-.4-1.14-4.57-2.23-8.75-2.4-9.32-.17-.8-.91-.97-3.95-.97h-3.66v18.87Z" class="cls-1"/>
    <path d="M686.47,581.92c0,8.12.29,15.78.57,17.04.34,1.43,1.26,2.97,2.52,4.12,1.83,1.72,2.4,1.89,5.49,1.89,4.52,0,6.63-1.14,8.06-4.17.97-2.17,1.09-3.89,1.09-18.01v-15.55h-5.72v15.38c0,13.26-.11,15.55-.91,16.29-1.03,1.09-2.17,1.14-3.72.34-1.03-.57-1.09-1.37-1.09-16.29v-15.72h-6.29v14.69Z" class="cls-1"/>
    <path d="M708.31,585.92l.17,18.75,7.78.17,7.83.17.23-2.46c.17-1.37.17-2.63.06-2.92-.11-.23-2.4-.4-5.09-.4h-4.8v-11.44h8v-5.15h-8v-10.29h9.61l.23-1.94c.11-1.09.11-2.23,0-2.57-.11-.4-2.86-.63-8.18-.63h-7.95l.11,18.7Z" class="cls-1"/>
    <path d="M726.49,568.31c0,1.03.57,5.09,3.43,24.07.69,4.23,1.32,8.8,1.54,10.12l.34,2.46h3.89c4.46,0,3.89.97,5.37-9.43,1.03-7.03,3.6-24.3,4-26.76.23-1.49.17-1.54-2.46-1.54h-2.74l-1.6,12.41c-2.34,18.18-2.17,17.95-3.72,6.17-.69-5.66-1.54-12.18-1.89-14.47l-.57-4.12h-2.8c-2.34,0-2.8.17-2.8,1.09Z" class="cls-1"/>
    <path d="M750.85,569.34c-.17,1.2-1.49,9.32-2.92,18.01-1.43,8.75-2.57,16.29-2.57,16.75,0,.63.63.86,2.52.86,2.74,0,2.57.29,3.54-5.32l.34-2.12h6.63l.51,3.54.46,3.6,3.03.17,3.09.17-.34-1.6c-.29-1.49-3.54-21.33-4.92-30.19-.97-6.35-.69-6-5.15-6h-3.89l-.34,2.12ZM756.28,582.49c1.49,10.46,1.54,10.01-1.2,9.78-1.26-.11-2.34-.29-2.4-.46-.23-.57,2.06-17.1,2.29-16.87.17.17.74,3.54,1.32,7.55Z" class="cls-1"/>
    <path d="M776.81,586.09v18.87h5.72v-16.58h7.43v-5.15h-7.43v-10.86h9.72v-5.15h-15.44v18.87Z" class="cls-1"/>
    <path d="M795.1,583.35c0,17.72.06,18.07,3.37,20.3,2.57,1.77,7.55,1.83,10.23.17,3.32-2.06,3.54-3.32,3.54-20.87v-15.72h-5.72v15.61c0,16.47-.06,16.98-2.63,16.98-2.97,0-3.09-.57-3.09-17.21v-15.38h-5.72v16.12Z" class="cls-1"/>
    <path d="M815.11,569.8v2.57h5.72l.11,16.12.17,16.18h5.72l.17-16.18.11-16.12h6.35l-.17-2.46-.17-2.4-8.98-.17-9.03-.17v2.63Z" class="cls-1"/>
    <path d="M835.81,585.92l.17,18.75,4.97.17c6.17.17,8.86-.46,11.03-2.74,1.6-1.66,1.72-2.12,1.89-7.09.23-5.66-.51-8.23-2.69-9.55-.91-.63-.91-.74.29-1.94,1.6-1.6,2.17-4.4,1.83-8.86-.4-5.83-2.97-7.43-11.89-7.43h-5.72l.11,18.7ZM846.96,573.92c.4.51.74,2.17.74,3.72,0,3.26-1.37,5.03-4,5.03h-1.72v-10.46l2.12.34c1.2.23,2.52.8,2.86,1.37ZM847.13,588.95c.91.91,1.14,1.89,1.14,4.63,0,4.8-.57,5.66-3.72,5.66h-2.57v-11.44h2c1.26,0,2.46.46,3.14,1.14Z" class="cls-1"/>
    <path d="M879.15,586.09v18.87h15.44v-5.72h-9.72v-32.02h-5.72v18.87Z" class="cls-1"/>
    <path d="M926.6,586.09v18.87h15.44v-5.72h-9.72v-32.02h-5.72v18.87Z" class="cls-1"/>
    <path d="M944.33,581.86c0,16.64.34,18.87,3.26,21.38,1.72,1.49,2.34,1.72,5.49,1.72,2.57,0,4.06-.34,5.43-1.14,3.32-2.06,3.54-3.32,3.54-20.87v-15.72h-5.72v31.45l-1.43.69c-1.09.46-1.77.46-2.86,0l-1.43-.69v-31.45h-6.29v14.64Z" class="cls-1"/>
    <path d="M966.05,586.09v18.87h5.2c6.29,0,9.09-.74,11.21-2.97,1.37-1.43,1.6-2.17,1.77-5.95.34-5.77-.23-8.12-2.23-10.01-1.6-1.49-1.66-1.6-.57-2.17,2.52-1.37,3.26-9.66,1.2-13.09-1.66-2.74-4.12-3.54-10.86-3.54h-5.72v18.87ZM977.32,573.92c1.2,1.6.91,6.29-.4,7.6-1.09,1.09-4.52,1.6-4.57.69-.06-.86-.11-8.46-.06-9.21.06-1.09,4.12-.4,5.03.91ZM977.49,588.95c.91.91,1.14,1.89,1.14,4.63,0,4.75-.57,5.66-3.72,5.66h-2.52l-.17-5.49c-.11-3.03-.06-5.6.06-5.72.74-.69,4.17-.11,5.2.91Z" class="cls-1"/>
    <path d="M756.17,625.83c-1.6.86-2.8,3.43-2.8,5.77,0,1.14.29,1.37,1.72,1.37,1.54,0,1.72-.17,1.72-1.66,0-2.4,1.49-3.66,3.66-3.26,2.29.46,2.63,1.14,2.63,5.03v3.32h-2.92c-5.43,0-6.75,1.49-6.8,7.78,0,4.17.11,4.75,1.43,5.95,1.83,1.72,6,1.89,7.78.23,1.09-.97,1.2-1.03,1.72-.06.34.51.97.97,1.37.97,1.26,0,1.26-21.04,0-23.38-1.37-2.69-6.35-3.77-9.49-2.06ZM762.97,642.07c.29,3.66-.23,5.09-2.17,6.06-1.32.69-2,.74-2.86.29-.97-.51-1.14-1.2-1.14-4.57,0-4.29.23-4.57,4.29-4.35,1.6.06,1.72.23,1.89,2.57Z" class="cls-1"/>
    <path d="M794.42,625.83c-2.34,1.32-2.86,3.95-2.63,13.84.17,8.63.17,8.75,1.77,10.29,1.32,1.37,2,1.6,4.92,1.6,4.46,0,6.35-1.54,6.35-5.2,0-2.34-.69-3.2-2.12-2.69-.4.17-.74.8-.74,1.37,0,3.09-2.97,4.75-5.55,3.09-1.26-.86-1.37-1.2-1.2-4.75l.17-3.83,1.89-.06c.97-.06,3.14-.11,4.69-.17l2.86-.06v-5.6c0-5.26-.11-5.72-1.43-6.98-1.83-1.72-6.69-2.17-8.98-.86ZM800.82,628.98c.86.86,1.14,1.89,1.14,4.29v3.14h-6.86v-3.32c0-3.43.34-4.29,1.72-4.86,1.66-.63,2.86-.4,4,.74Z" class="cls-1"/>
    <path d="M736.21,638.47v12.86l1.6-.17c1.49-.17,1.54-.29,1.72-4.06l.17-3.83h2.8c2.12,0,3.2-.34,4.35-1.32,1.37-1.2,1.6-1.83,1.83-5.95.46-8.29-1.32-10.46-8.69-10.46h-3.77v12.92ZM744.33,629.38c.8.74,1.03,1.77,1.03,4.86,0,5.2-.57,6.17-3.43,6.17h-2.29v-12.01h1.83c.97,0,2.29.4,2.86.97Z" class="cls-1"/>
    <path d="M773.37,638.41v12.86h3.72c4.57,0,7.55-1.14,8.29-3.14.74-1.94.74-17.5,0-19.38-.8-2.17-3.37-3.2-8-3.2h-4v12.86ZM781.67,629.32c.74.74.86,2.29.74,9.55l-.17,8.69-2.97.17-3.03.17v-9.38c0-5.15.17-9.55.4-9.72.69-.74,4.12-.4,5.03.51Z" class="cls-1"/>
    <path d="M811.68,638.41v12.92l5.03-.17c4.86-.17,4.97-.17,4.97-1.6,0-1.32-.17-1.43-3.03-1.43-2-.06-3.2-.34-3.54-.86-.34-.46-.57-5.55-.57-11.32v-10.41h-2.86v12.86Z" class="cls-1"/>
    <path d="M541.82,640.53c0,.4.17,1.32.34,2l.34,1.32h166.84v-4h-83.76c-66.61,0-83.76.17-83.76.69Z" class="cls-1"/>
    <path d="M839.7,640.58c0,.46.17.97.46,1.2.23.23.4.74.4,1.09,0,.51,20.3.74,83.36.86l83.3.11v-4h-83.76c-69.41,0-83.76.11-83.76.74Z" class="cls-1"/>
  </g>
</svg>