<svg xmlns="http://www.w3.org/2000/svg" version="1.0" width="3017.000000pt" height="1560.000000pt" viewBox="0 0 3017.000000 1560.000000" preserveAspectRatio="xMidYMid meet">

<g transform="translate(0.000000,1560.000000) scale(0.100000,-0.100000)" fill="#ffffff" stroke="none">
<path d="M11505 15589 c-121 -18 -194 -47 -345 -139 -191 -115 -251 -173 -309 -295 -42 -87 -54 -156 -50 -276 4 -94 8 -112 37 -170 39 -80 115 -155 200 -198 109 -55 200 -71 462 -81 426 -16 620 -67 796 -210 182 -146 261 -359 252 -672 -4 -128 -3 -148 11 -153 10 -4 24 4 38 22 l23 28 0 -26 c0 -16 7 -30 16 -33 9 -4 18 -5 19 -4 2 2 23 35 48 73 95 150 160 307 199 488 31 144 31 398 0 543 -61 285 -188 534 -369 725 -113 118 -218 196 -356 264 -219 107 -449 146 -672 114z" fill="#ffffff"/>
<path d="M10573 15023 c-98 -160 -156 -299 -202 -480 -63 -250 -77 -429 -46 -609 83 -481 409 -883 837 -1033 144 -50 242 -64 408 -58 175 6 260 26 410 99 92 44 116 62 196 142 101 101 151 181 182 291 73 258 72 394 -5 552 -84 174 -256 263 -588 308 -22 3 -120 10 -218 15 -278 16 -431 52 -562 131 -73 44 -173 150 -219 231 -47 84 -102 252 -123 377 -10 55 -20 101 -23 101 -3 0 -24 -30 -47 -67z" fill="#ffffff"/>
<path d="M17675 14540 c-1345 -93 -2545 -626 -3720 -1650 -185 -162 -626 -605 -800 -805 -540 -621 -1015 -1311 -1517 -2205 -60 -107 -111 -196 -113 -198 -1 -2 -31 50 -65 115 -388 732 -1014 1407 -1760 1896 -938 614 -2089 956 -3223 957 l-188 0 20 -29 c26 -36 26 -41 0 -41 -18 0 -14 -8 27 -67 26 -38 52 -73 58 -80 7 -7 81 -16 201 -23 403 -23 761 -95 1123 -226 935 -339 1741 -1036 2282 -1975 400 -693 645 -1564 667 -2372 5 -168 9 -220 20 -229 17 -14 45 -15 663 -28 272 -5 536 -11 585 -13 l90 -2 -4 176 -3 175 77 200 c233 597 566 1314 845 1814 460 826 943 1485 1515 2069 777 792 1522 1273 2455 1581 573 190 996 248 1605 221 438 -19 500 -26 665 -78 590 -183 1168 -463 1467 -710 178 -148 602 -575 762 -768 130 -156 290 -364 383 -495 54 -78 134 -234 215 -425 64 -148 158 -400 168 -450 4 -16 13 -46 20 -65 8 -19 21 -66 30 -104 9 -38 23 -83 30 -100 45 -104 80 -433 92 -841 16 -606 -152 -1258 -507 -1967 l-89 -178 58 0 c138 0 204 54 298 242 268 536 281 566 348 768 98 298 177 633 199 845 23 225 28 344 23 584 -6 332 -33 545 -103 827 -15 60 -28 118 -29 129 -15 111 -81 375 -111 441 -19 43 -60 141 -90 218 -72 185 -83 208 -166 356 -108 191 -302 477 -444 655 -147 183 -434 480 -608 629 -236 202 -468 366 -751 531 -581 339 -1130 552 -1640 634 -330 53 -789 79 -1060 61z" fill="#ffffff"/>
<path d="M18515 12915 c-118 -49 -202 -132 -246 -242 -20 -48 -24 -76 -24 -168 0 -106 1 -113 36 -186 30 -62 51 -89 123 -155 47 -43 112 -93 143 -111 158 -89 359 -58 492 74 134 135 166 331 81 509 -41 84 -185 223 -278 267 -59 28 -79 32 -167 35 -88 2 -107 0 -160 -23z" fill="#ffffff"/>
<path d="M16912 12410 c-166 -35 -282 -165 -282 -319 0 -114 44 -188 167 -281 97 -74 157 -93 273 -88 85 3 102 7 158 37 73 40 116 84 149 158 44 95 28 236 -35 307 -49 56 -170 148 -217 165 -64 24 -155 33 -213 21z" fill="#ffffff"/>
<path d="M19382 11851 c-74 -28 -111 -53 -169 -114 -61 -65 -88 -115 -109 -204 -27 -114 -6 -235 59 -337 40 -63 187 -192 255 -223 78 -36 168 -49 245 -36 289 49 440 357 310 631 -38 81 -175 211 -272 260 -67 33 -82 37 -170 39 -76 3 -107 -1 -149 -16z" fill="#ffffff"/>
<path d="M17780 11510 c-155 -26 -267 -147 -278 -301 -9 -130 34 -223 148 -315 100 -80 147 -99 250 -98 73 0 93 4 138 27 75 39 127 90 159 155 24 50 28 69 28 147 0 78 -4 98 -27 146 -41 82 -165 194 -248 222 -59 21 -115 26 -170 17z" fill="#ffffff"/>
<path d="M15950 11399 c-55 -25 -86 -53 -110 -99 -62 -120 -15 -236 130 -326 64 -39 165 -45 238 -14 104 45 157 146 131 252 -10 42 -23 64 -70 110 -31 32 -77 67 -101 78 -59 27 -158 26 -218 -1z" fill="#ffffff"/>
<path d="M20327 10879 c-216 -51 -366 -277 -328 -495 14 -77 47 -155 87 -205 48 -59 185 -170 244 -198 49 -23 67 -26 171 -26 111 0 117 1 182 34 84 43 158 119 200 208 30 64 32 74 32 184 0 113 -1 117 -37 190 -29 59 -56 94 -122 157 -142 136 -282 186 -429 151z" fill="#ffffff"/>
<path d="M15199 10813 c-72 -37 -99 -79 -99 -151 0 -75 29 -132 89 -176 85 -63 170 -58 235 14 72 80 58 170 -43 278 -70 73 -95 78 -182 35z" fill="#ffffff"/>
<path d="M18506 10656 c-76 -32 -140 -95 -177 -171 -24 -49 -29 -73 -29 -131 0 -118 21 -167 111 -255 100 -99 166 -133 269 -137 58 -3 88 1 132 18 75 28 150 96 185 168 38 77 40 200 4 279 -29 65 -154 188 -226 222 -77 37 -191 40 -269 7z" fill="#ffffff"/>
<path d="M16800 10581 c-138 -42 -207 -183 -151 -306 22 -48 95 -115 159 -147 130 -62 307 6 342 132 27 95 1 169 -83 246 -80 74 -180 101 -267 75z" fill="#ffffff"/>
<path d="M16045 9936 c-16 -7 -49 -32 -72 -55 -73 -73 -81 -182 -18 -241 27 -25 105 -51 176 -57 157 -15 236 168 126 293 -58 67 -142 91 -212 60z" fill="#ffffff"/>
<path d="M19379 9865 c-189 -60 -285 -257 -218 -442 17 -47 36 -73 99 -134 44 -42 100 -86 126 -98 112 -53 233 -46 334 20 131 85 184 247 128 396 -29 79 -137 192 -225 235 -76 37 -172 46 -244 23z" fill="#ffffff"/>
<path d="M17583 9826 c-145 -47 -212 -184 -152 -312 24 -50 116 -128 178 -150 84 -30 186 -12 252 45 77 65 101 170 58 257 -22 47 -109 127 -162 149 -52 21 -127 26 -174 11z" fill="#ffffff"/>
<path d="M20182 9132 c-138 -49 -232 -198 -219 -346 9 -101 56 -178 157 -259 102 -82 158 -102 265 -95 130 9 241 89 285 205 32 85 26 207 -15 282 -37 67 -142 165 -215 199 -73 35 -182 41 -258 14z" fill="#ffffff"/>
<path d="M16833 9021 c-62 -29 -96 -86 -96 -160 1 -84 34 -137 108 -173 158 -78 311 70 234 228 -26 54 -77 100 -126 113 -52 15 -72 13 -120 -8z" fill="#ffffff"/>
<path d="M18357 8999 c-145 -35 -225 -179 -168 -305 20 -44 104 -123 161 -151 25 -13 59 -18 115 -18 72 0 85 3 128 30 70 44 100 95 105 176 5 83 -16 129 -91 193 -82 70 -167 96 -250 75z" fill="#ffffff"/>
<path d="M19157 8236 c-149 -41 -221 -190 -154 -317 27 -51 128 -133 184 -148 159 -45 323 60 323 205 0 70 -22 116 -79 172 -91 86 -178 115 -274 88z" fill="#ffffff"/>
<path d="M17644 8112 c-80 -38 -116 -115 -96 -210 9 -45 20 -65 50 -93 43 -40 121 -65 175 -55 110 21 164 136 122 257 -27 75 -68 105 -157 114 -40 4 -63 1 -94 -13z" fill="#ffffff"/>
<path d="M20833 6615 c-157 -34 -281 -129 -346 -265 -67 -140 -67 -145 -67 -965 0 -820 0 -825 67 -965 88 -184 264 -280 513 -280 249 0 425 96 513 280 67 140 67 145 67 965 0 820 0 825 -67 965 -66 138 -190 231 -351 265 -83 18 -247 18 -329 0z m268 -358 c32 -17 50 -37 69 -72 l25 -49 0 -751 0 -751 -25 -49 c-33 -64 -89 -95 -170 -95 -81 0 -137 31 -170 95 l-25 49 0 751 0 751 25 49 c33 64 89 95 170 95 40 0 70 -7 101 -23z" fill="#ffffff"/>
<path d="M23942 6610 c-148 -39 -253 -123 -316 -252 -66 -135 -66 -142 -66 -973 0 -831 0 -838 66 -973 87 -178 257 -272 494 -272 237 0 409 95 494 272 54 114 66 194 66 448 l0 220 -180 0 -180 0 0 -200 c0 -111 -5 -223 -11 -252 -16 -72 -66 -123 -132 -133 -123 -19 -204 30 -226 136 -8 39 -11 263 -9 785 l3 729 25 45 c18 32 38 52 70 68 92 46 203 16 250 -68 24 -43 25 -55 28 -227 l4 -183 179 0 179 0 0 175 c0 208 -15 297 -66 403 -87 180 -258 273 -498 271 -66 0 -127 -7 -174 -19z" fill="#ffffff"/>
<path d="M2043 6573 c2 -16 85 -562 183 -1215 l179 -1188 255 0 255 0 179 1188 c99 653 182 1199 184 1215 l4 27 -176 0 c-174 0 -176 0 -181 -22 -2 -13 -59 -434 -125 -937 -66 -503 -121 -915 -122 -917 -2 -2 -157 1155 -246 1839 l-5 37 -195 0 -194 0 5 -27z" fill="#ffffff"/>
<path d="M3470 5385 l0 -1215 190 0 190 0 0 1215 0 1215 -190 0 -190 0 0 -1215z" fill="#ffffff"/>
<path d="M4130 5385 l0 -1215 505 0 505 0 0 175 0 175 -315 0 -315 0 0 1040 0 1040 -190 0 -190 0 0 -1215z" fill="#ffffff"/>
<path d="M5320 5385 l0 -1215 505 0 505 0 0 175 0 175 -315 0 -315 0 0 1040 0 1040 -190 0 -190 0 0 -1215z" fill="#ffffff"/>
<path d="M6820 6592 c0 -5 -88 -549 -195 -1209 -107 -661 -195 -1204 -195 -1207 0 -3 80 -6 178 -6 l177 0 35 240 34 240 215 -2 215 -3 34 -235 c18 -129 35 -236 36 -238 2 -1 88 -1 193 0 l189 3 -197 1210 c-109 666 -198 1211 -198 1213 -2 6 -521 1 -521 -6z m330 -998 c44 -313 82 -579 85 -591 l5 -23 -171 0 -171 0 5 28 c3 15 40 282 83 594 43 312 80 566 81 564 2 -2 39 -259 83 -572z" fill="#ffffff"/>
<path d="M7910 5385 l0 -1215 170 0 170 0 2 887 3 887 230 -887 230 -887 198 0 197 0 0 1215 0 1215 -170 0 -170 0 -2 -727 -3 -727 -186 724 -186 725 -242 3 -241 2 0 -1215z" fill="#ffffff"/>
<path d="M9382 5593 c3 -932 5 -1013 21 -1068 61 -203 192 -330 385 -371 98 -20 243 -18 336 6 196 50 311 165 373 375 16 55 18 139 21 1063 l3 1002 -185 0 -185 0 -3 -987 -3 -988 -25 -45 c-67 -121 -263 -121 -330 0 l-25 45 -3 988 -3 987 -190 0 -190 0 3 -1007z" fill="#ffffff"/>
<path d="M10780 5385 l0 -1215 520 0 520 0 0 175 0 175 -330 0 -330 0 0 370 0 370 263 2 262 3 3 173 2 172 -265 0 -265 0 0 320 0 320 330 0 330 0 0 175 0 175 -520 0 -520 0 0 -1215z" fill="#ffffff"/>
<path d="M11943 6573 c2 -16 85 -562 183 -1215 l179 -1188 255 0 255 0 179 1188 c99 653 182 1199 184 1215 l4 27 -176 0 c-174 0 -176 0 -181 -22 -2 -13 -59 -434 -125 -937 -66 -503 -121 -915 -122 -917 -2 -2 -157 1155 -246 1839 l-5 37 -195 0 -194 0 5 -27z" fill="#ffffff"/>
<path d="M13560 6592 c0 -5 -88 -549 -195 -1209 -107 -661 -195 -1204 -195 -1207 0 -3 80 -6 178 -6 l177 0 35 240 34 240 215 -2 215 -3 34 -235 c18 -129 35 -236 36 -238 2 -1 88 -1 193 0 l189 3 -197 1210 c-109 666 -198 1211 -198 1213 -2 6 -521 1 -521 -6z m330 -998 c44 -313 82 -579 85 -591 l5 -23 -171 0 -171 0 5 28 c3 15 40 282 83 594 43 312 80 566 81 564 2 -2 39 -259 83 -572z" fill="#ffffff"/>
<path d="M15210 5385 l0 -1215 190 0 190 0 0 530 0 530 245 0 245 0 0 175 0 175 -245 0 -245 0 0 335 0 335 315 0 315 0 0 175 0 175 -505 0 -505 0 0 -1215z" fill="#ffffff"/>
<path d="M16392 5593 c3 -932 5 -1013 21 -1068 61 -203 192 -330 385 -371 98 -20 243 -18 336 6 196 50 311 165 373 375 16 55 18 139 21 1063 l3 1002 -185 0 -185 0 -3 -987 -3 -988 -25 -45 c-67 -121 -263 -121 -330 0 l-25 45 -3 988 -3 987 -190 0 -190 0 3 -1007z" fill="#ffffff"/>
<path d="M17690 6425 l0 -175 200 0 200 0 0 -1040 0 -1040 190 0 190 0 0 1040 0 1040 200 0 200 0 0 175 0 175 -590 0 -590 0 0 -175z" fill="#ffffff"/>
<path d="M19050 5385 l0 -1215 353 0 c395 0 444 6 563 65 127 62 216 183 249 341 20 96 20 462 0 559 -30 140 -101 242 -213 303 l-53 29 31 13 c48 20 123 98 153 160 42 85 57 176 57 347 0 247 -33 364 -131 468 -62 66 -141 107 -251 129 -61 13 -146 16 -418 16 l-340 0 0 -1215z m660 843 c72 -37 93 -89 98 -252 7 -210 -18 -290 -103 -338 -34 -18 -59 -23 -157 -26 l-118 -4 0 321 0 321 118 0 c102 0 124 -3 162 -22z m-7 -979 c50 -14 101 -60 123 -112 13 -33 18 -81 22 -222 5 -211 -5 -283 -47 -335 -40 -50 -76 -59 -233 -59 l-138 -1 0 370 0 370 118 0 c64 0 134 -5 155 -11z" fill="#ffffff"/>
<path d="M21830 5385 l0 -1215 505 0 505 0 0 175 0 175 -315 0 -315 0 0 1040 0 1040 -190 0 -190 0 0 -1215z" fill="#ffffff"/>
<path d="M24900 5385 l0 -1215 505 0 505 0 0 175 0 175 -315 0 -315 0 0 1040 0 1040 -190 0 -190 0 0 -1215z" fill="#ffffff"/>
<path d="M26092 5593 c3 -932 5 -1013 21 -1068 61 -203 192 -330 385 -371 98 -20 243 -18 336 6 196 50 311 165 373 375 16 55 18 139 21 1063 l3 1002 -185 0 -185 0 -3 -987 -3 -988 -25 -45 c-67 -121 -263 -121 -330 0 l-25 45 -3 988 -3 987 -190 0 -190 0 3 -1007z" fill="#ffffff"/>
<path d="M27490 5385 l0 -1215 353 0 c395 0 444 6 563 65 127 62 216 183 249 341 20 96 20 462 0 559 -30 140 -101 242 -213 303 l-53 29 31 13 c48 20 123 98 153 160 42 85 57 176 57 347 0 247 -33 364 -131 468 -62 66 -141 107 -251 129 -61 13 -146 16 -418 16 l-340 0 0 -1215z m660 843 c72 -37 93 -89 98 -252 7 -210 -18 -290 -103 -338 -34 -18 -59 -23 -157 -26 l-118 -4 0 321 0 321 118 0 c102 0 124 -3 162 -22z m-7 -979 c50 -14 101 -60 123 -112 13 -33 18 -81 22 -222 5 -211 -5 -283 -47 -335 -40 -50 -76 -59 -233 -59 l-138 -1 0 370 0 370 118 0 c64 0 134 -5 155 -11z" fill="#ffffff"/>
<path d="M13982 2845 c-81 -18 -139 -52 -191 -111 -55 -62 -72 -123 -78 -270 l-5 -121 53 -6 c68 -9 133 -9 153 -1 13 5 16 25 16 113 0 125 15 163 76 195 60 32 184 30 243 -4 76 -43 81 -62 81 -306 l0 -211 -182 -6 c-203 -6 -256 -17 -334 -70 -38 -25 -57 -48 -84 -101 l-35 -69 -3 -223 c-4 -252 5 -312 59 -391 62 -89 185 -139 326 -131 99 6 173 38 248 109 30 29 57 50 58 48 2 -2 14 -30 26 -62 l23 -57 60 0 59 0 -4 703 c-2 541 -6 711 -16 742 -35 108 -117 187 -226 221 -71 22 -245 27 -323 9z m348 -1122 c0 -178 -2 -201 -21 -239 -73 -152 -301 -215 -376 -104 -22 32 -23 42 -23 242 0 302 -4 297 253 298 l167 0 0 -197z" fill="#ffffff"/>
<path d="M16472 2845 c-87 -19 -147 -52 -198 -108 -81 -90 -79 -73 -79 -747 l0 -595 29 -63 c62 -134 197 -202 399 -202 301 1 450 160 423 453 l-8 77 -104 0 -104 0 0 -108 c0 -129 -14 -164 -81 -202 -37 -21 -57 -25 -129 -25 -100 0 -152 21 -187 74 -22 33 -23 41 -23 277 l0 244 318 2 317 3 3 290 c4 385 -7 444 -99 536 -93 93 -296 133 -477 94z m279 -207 c74 -41 79 -62 79 -305 l0 -213 -211 0 -210 0 3 229 3 230 30 31 c41 43 104 61 192 56 52 -3 85 -11 114 -28z" fill="#ffffff"/>
<path d="M12570 1995 l0 -825 110 0 110 0 0 245 0 245 98 0 c241 1 366 47 438 162 49 78 56 133 52 451 -3 280 -4 294 -26 342 -45 97 -139 170 -250 194 -31 6 -153 11 -292 11 l-240 0 0 -825z m499 614 c36 -15 54 -31 72 -62 22 -39 24 -54 27 -240 7 -327 -6 -389 -91 -431 -38 -18 -201 -30 -261 -19 l-26 5 0 384 0 384 116 0 c94 0 124 -4 163 -21z" fill="#ffffff"/>
<path d="M14980 1996 l0 -826 259 0 c235 0 265 2 327 21 114 35 179 94 221 199 17 41 18 90 18 600 0 518 -1 559 -19 609 -26 76 -110 160 -191 192 -57 22 -74 24 -337 27 l-278 3 0 -825z m520 612 c24 -13 53 -36 64 -51 20 -28 21 -41 24 -555 2 -498 1 -529 -16 -561 -33 -61 -76 -76 -239 -79 l-143 -3 0 635 0 636 133 0 c118 0 138 -3 177 -22z" fill="#ffffff"/>
<path d="M17460 1995 l0 -825 330 0 330 0 0 95 0 95 -225 0 -225 0 0 730 0 730 -105 0 -105 0 0 -825z" fill="#ffffff"/>
<path d="M19300 1841 c0 -70 2 -79 20 -84 17 -4 20 -14 20 -61 l0 -56 5410 0 5410 0 0 80 c0 64 -3 80 -15 80 -12 0 -15 13 -15 60 l0 60 -5415 0 -5415 0 0 -79z" fill="#ffffff"/>
<path d="M0 1815 c0 -78 2 -85 20 -85 18 0 20 -7 20 -55 l0 -55 5410 0 5410 0 0 80 c0 64 -3 80 -15 80 -12 0 -15 13 -15 60 l0 60 -5415 0 -5415 0 0 -85z" fill="#ffffff"/>
</g>
</svg>